<?xml version="1.0" standalone="no"?>
<!DOCTYPE svg PUBLIC "-//W3C//DTD SVG 1.1//EN" "http://www.w3.org/Graphics/SVG/1.1/DTD/svg11.dtd" >
<svg>
<metadata>
Created by FontForge 20110222 at Fri May 23 10:21:03 2014
 By deploy user
Copyright (c) Emigre Inc, 2011. Designed by Zuzana Licko. All rights reserved.
</metadata>
<defs>
<font id="MrEavesSanOT-LightItalic" horiz-adv-x="469" >
  <font-face 
    font-family="MrEavesSanOTLight"
    font-weight="300"
    font-style="italic"
    font-stretch="normal"
    units-per-em="1000"
    panose-1="2 11 3 3 6 5 2 9 2 2"
    ascent="800"
    descent="-200"
    x-height="348"
    cap-height="600"
    bbox="-142 -239 844.73 846"
    underline-thickness="30"
    underline-position="-70"
    slope="-12"
    unicode-range="U+0010-FB02"
  />
<missing-glyph horiz-adv-x="500" 
 />
    <glyph glyph-name="fi" unicode="fi" horiz-adv-x="363" 
d="M315 300q0 -15 -24 -131.5t-24 -133.5q0 -18 19 -18q14 0 21 5v-18q-17 -11 -35 -11q-17 0 -27.5 10.5t-10.5 30.5q0 15 24 129.5t24 131.5q0 19 -20 19h-137l-74 -418q-16 -99 -93 -99q-34 0 -50 19l4 25q20 -16 43 -16q28 0 42.5 16.5t22.5 63.5l72 409h-65l5 27h65
l25 141q13 72 42.5 102t75.5 30q14 0 26 -5l-4 -28q-10 4 -20 4q-35 0 -56 -20.5t-31 -82.5l-25 -141h147q38 0 38 -41zM304 478q1 10 9.5 18t19.5 8q10 0 17 -7.5t6 -18.5q-1 -10 -9.5 -18t-19.5 -8q-10 0 -17 7.5t-6 18.5z" />
    <glyph glyph-name="fl" unicode="fl" horiz-adv-x="359" 
d="M365 608l-98 -556q-4 -20 0 -27.5t17 -7.5t21 5v-18q-17 -11 -35 -11q-47 0 -36 59l92 520q-30 10 -60 10q-47 0 -75 -26t-39 -90l-22 -125h90l-5 -27h-90l-74 -418q-17 -99 -94 -99q-33 0 -49 19l4 25q20 -16 43 -16q28 0 42.5 17t22.5 63l72 409h-65l5 27h65l22 122
q26 147 149 147q31 0 63 -10z" />
    <glyph glyph-name=".notdef" horiz-adv-x="500" 
 />
    <glyph glyph-name=".null" horiz-adv-x="0" 
 />
    <glyph glyph-name="nonmarkingreturn" horiz-adv-x="333" 
 />
    <glyph glyph-name="DLE" horiz-adv-x="463" 
d="M439 381l-89 -77q27 -40 21 -87q-6 -55 -47 -93l56 -70l-19 -16l-57 70q-40 -29 -88 -29q-51 0 -87 36l-90 -78l-15 19l89 77q-27 40 -21 87q6 53 46 93l-56 70l20 16l56 -70q40 29 88 29q53 0 88 -35l89 77zM245 335q-48 0 -86 -34t-43 -83q-5 -48 24.5 -81.5
t78.5 -33.5q48 0 86 33.5t42 81.5q5 49 -24.5 83t-77.5 34z" />
    <glyph glyph-name="space" unicode=" " horiz-adv-x="147" 
 />
    <glyph glyph-name="exclam" unicode="!" horiz-adv-x="196" 
d="M186 600l-85 -435h-24l69 435h40zM67 49q11 0 18 -8t6 -19q-2 -11 -10.5 -19t-19.5 -8t-18 8t-6 19q2 11 10.5 19t19.5 8z" />
    <glyph glyph-name="quotedbl" unicode="&#x22;" horiz-adv-x="288" 
d="M285 581q-1 -6 -5.5 -20t-14 -44.5t-18.5 -70.5h-15q5 41 7 71t1.5 44.5t0.5 18.5q3 28 25 28q10 0 15.5 -8t3.5 -19zM177 581q-1 -6 -5.5 -20t-14 -44.5t-18.5 -70.5h-15q5 41 7 71t1.5 44.5t0.5 18.5q3 28 25 28q10 0 15.5 -8t3.5 -19z" />
    <glyph glyph-name="numbersign" unicode="#" horiz-adv-x="383" 
d="M400 462l-8 -26h-65l-56 -177h66l-8 -26h-66l-43 -139h-25l43 139h-119l-43 -139h-25l43 139h-67l9 26h65l56 177h-67l8 26h66l43 138h25l-43 -138h120l42 138h26l-43 -138h66zM301 436h-119l-56 -177h120z" />
    <glyph glyph-name="dollar" unicode="$" horiz-adv-x="424" 
d="M269 573q-56 -1 -95 -28.5t-46 -74.5q-16 -99 99 -136zM195 29q59 0 99.5 31.5t48.5 88.5q7 51 -15 86.5t-86 60.5zM167 -1q-79 7 -138 68l12 32q58 -62 132 -69l48 273q-72 20 -103 64t-22 105q8 57 58 93.5t120 37.5l14 80h22l-14 -81q66 -7 106 -44l-10 -29
q-39 36 -102 43l-42 -244q78 -27 107 -71.5t20 -108.5q-9 -73 -61 -111.5t-125 -38.5l-14 -81h-22z" />
    <glyph glyph-name="percent" unicode="%" horiz-adv-x="617" 
d="M553 129q-7 -65 -43.5 -103t-83.5 -38q-45 0 -73.5 38.5t-21.5 102.5q7 65 44 103.5t83 38.5q45 0 73.5 -39t21.5 -103zM549 606l-439 -624l-16 12l439 624zM525 129q6 51 -13.5 84t-55.5 33q-37 0 -64 -33t-33 -84t13 -83.5t56 -32.5t64 32.5t33 83.5zM315 471
q-7 -65 -43.5 -103t-83.5 -38q-45 0 -73.5 38.5t-21.5 102.5q7 65 44 103.5t83 38.5q45 0 73.5 -39t21.5 -103zM287 471q6 51 -13.5 84t-55.5 33q-37 0 -64 -33t-33 -84t13 -83.5t56 -32.5t64 32.5t33 83.5z" />
    <glyph glyph-name="ampersand" unicode="&#x26;" horiz-adv-x="607" 
d="M575 29q-39 -43 -86 -43q-63 0 -126 69q-61 -69 -150 -69q-77 0 -128 44t-43 126q5 49 41.5 87.5t98.5 76.5q-37 73 -29 155q6 60 52.5 99.5t110.5 39.5q58 0 92 -33t29 -81q-3 -27 -17.5 -51t-41.5 -44.5t-49 -34t-57.5 -32t-49.5 -27.5q80 -136 143 -210q42 59 60 194
h116l-3 -28h-88q-21 -126 -66 -187q33 -36 58 -51.5t55 -15.5q38 0 66 31zM404 500q4 39 -21.5 63t-68.5 24q-51 0 -87 -31.5t-41 -79.5q-7 -77 24 -141q14 8 43 24t45 25t38 24t34 27.5t22 29.5t12 35zM345 75q-66 77 -150 221q-54 -35 -85 -67.5t-35 -73.5
q-7 -68 35 -104.5t108 -36.5q75 0 127 61z" />
    <glyph glyph-name="quotesingle" unicode="'" horiz-adv-x="176" 
d="M177 581q-1 -6 -5.5 -20t-14 -44.5t-18.5 -70.5h-15q5 41 7 71t1.5 44.5t0.5 18.5q3 28 25 28q10 0 15.5 -8t3.5 -19z" />
    <glyph glyph-name="parenleft" unicode="(" horiz-adv-x="274" 
d="M331 689q-175 -173 -215 -394q-39 -223 74 -396l-12 -10q-55 68 -84 171t-7 235q22 130 88.5 234t145.5 172z" />
    <glyph glyph-name="parenright" unicode=")" horiz-adv-x="274" 
d="M215 295q-23 -131 -89 -234.5t-145 -171.5l-10 12q66 64 129 164.5t86 229.5q39 223 -74 396l12 10q55 -68 84.5 -171.5t6.5 -234.5z" />
    <glyph glyph-name="asterisk" unicode="*" horiz-adv-x="361" 
d="M218 420q-5 -48 -6 -95t-1 -50q-3 -26 -21 -26q-19 0 -15 27q1 8 14 54t19 92q-44 -20 -86 -43l-42 -23q-25 -11 -33 5q-9 16 16 27q8 4 53.5 15.5t87.5 28.5q-37 27 -77 51t-44 27q-21 15 -12 31q9 17 31 0q6 -4 39 -38.5t70 -62.5q5 48 6 95t1 50q3 26 21 26
q19 0 15 -27q-1 -8 -14 -54t-19 -92q44 20 87 43.5t44 23.5q23 10 33 -5q10 -16 -16 -27q-8 -4 -54 -15.5t-90 -29.5q38 -26 77.5 -50.5t45.5 -28.5q21 -16 12 -31q-10 -16 -31 0q-5 4 -39.5 38.5t-71.5 63.5z" />
    <glyph glyph-name="plus" unicode="+" horiz-adv-x="390" 
d="M352 242l-5 -26h-139l-26 -145h-26l25 145h-139l6 26h139l25 145h26l-25 -145h139z" />
    <glyph glyph-name="comma" unicode="," horiz-adv-x="188" 
d="M86 18q-3 -30 -23.5 -68t-45.5 -58l-11 9q46 56 51 97h-3q-23 4 -20 26q1 10 9 17.5t18 7.5q12 0 19 -8.5t6 -22.5z" />
    <glyph glyph-name="hyphen" unicode="-" horiz-adv-x="252" 
d="M204 221l-4 -30h-156l4 30h156z" />
    <glyph glyph-name="period" unicode="." horiz-adv-x="188" 
d="M88 22q-2 -11 -10.5 -19t-19.5 -8t-18 8t-6 19q2 11 10.5 19t19.5 8t18 -8t6 -19z" />
    <glyph glyph-name="slash" unicode="/" horiz-adv-x="281" 
d="M353 608l-377 -626l-18 10l377 626z" />
    <glyph glyph-name="zero" unicode="0" horiz-adv-x="512" 
d="M465 216q-11 -100 -77 -164.5t-157 -64.5q-92 0 -144.5 64.5t-41.5 164.5q11 99 76.5 164t157.5 65q91 0 144 -65t42 -164zM431 216q10 88 -33 143t-120 55q-78 0 -133.5 -55t-65.5 -143q-10 -89 32.5 -143.5t120.5 -54.5q77 0 133 54.5t66 143.5z" />
    <glyph glyph-name="one" unicode="1" horiz-adv-x="234" 
d="M98 0h-34l71 400l-64 -8l4 25l101 25z" />
    <glyph glyph-name="two" unicode="2" horiz-adv-x="434" 
d="M385 313q-9 -91 -135 -171l-173 -111h285l-5 -31h-331l-5 25l196 129q37 24 60.5 42.5t47 50t26.5 64.5q6 53 -27.5 78.5t-88.5 25.5q-79 0 -158 -55l6 35q28 20 71 35.5t84 15.5q71 0 112 -36t35 -97z" />
    <glyph glyph-name="three" unicode="3" horiz-adv-x="446" 
d="M422 412l-264 -246q34 9 59 7q70 -6 108 -56.5t30 -121.5q-10 -88 -72 -141.5t-147 -53.5q-41 0 -81 14.5t-63 36.5l5 35q57 -55 142 -55q72 0 123 44.5t59 119.5q7 69 -29 110.5t-100 41.5q-56 0 -91 -28l-13 19l281 263h-286l4 31h329z" />
    <glyph glyph-name="four" unicode="4" horiz-adv-x="483" 
d="M420 30l-5 -30h-106l-34 -195h-33l34 195h-273l-5 23l368 421h22l-74 -414h106zM343 377l-303 -347h241z" />
    <glyph glyph-name="five" unicode="5" horiz-adv-x="438" 
d="M409 432l-5 -31h-271l-48 -269q47 51 119 51t116 -50t34 -135q-10 -89 -72.5 -143.5t-147.5 -54.5q-41 0 -81 14.5t-63 36.5l5 35q59 -55 142 -55q69 0 121.5 45.5t61.5 121.5q8 70 -26.5 113t-98.5 43q-81 0 -128 -74l-21 8l61 344h302z" />
    <glyph glyph-name="six" unicode="6" horiz-adv-x="479" 
d="M468 582l-6 -32q-42 33 -110 33q-100 0 -167.5 -78.5t-88.5 -217.5q29 37 75.5 59.5t93.5 22.5q80 0 127 -56t37 -141q-10 -83 -66.5 -134.5t-133.5 -51.5q-37 0 -69 13.5t-59.5 44t-38.5 87t-2 134.5q20 163 98 256t198 93q72 0 112 -32zM395 172q8 73 -29 120t-105 47
q-48 0 -95 -25.5t-74 -68.5q-6 -64 3.5 -111t31.5 -71.5t47.5 -36t55.5 -11.5q65 0 111 42.5t54 114.5z" />
    <glyph glyph-name="seven" unicode="7" horiz-adv-x="406" 
d="M408 413q-59 -73 -171 -272t-162 -336h-39q53 137 161 327.5t167 268.5h-310l5 31h345z" />
    <glyph glyph-name="eight" unicode="8" horiz-adv-x="493" 
d="M450 482q-4 -50 -46 -90t-106 -58q64 -20 101.5 -63t33.5 -107q-4 -78 -65.5 -128t-149.5 -50q-83 0 -132 46t-44 119q4 68 58 115t132 68q-51 15 -80 53t-25 88q4 61 55.5 100.5t122.5 39.5q67 0 108 -36.5t37 -96.5zM417 482q4 48 -27 76t-88 28q-58 0 -98 -32t-44 -82
q-3 -45 24.5 -77.5t83.5 -45.5q64 15 104.5 50.5t44.5 82.5zM263 318q-178 -50 -187 -167q-5 -60 34.5 -97.5t110.5 -37.5q73 0 123 42t55 105q8 114 -136 155z" />
    <glyph glyph-name="nine" unicode="9" horiz-adv-x="479" 
d="M6 -168l6 32q42 -33 110 -33q99 0 167.5 86.5t89.5 228.5q-29 -37 -75.5 -59.5t-93.5 -22.5q-80 0 -127 56t-37 141q10 83 66.5 134.5t133.5 51.5q37 0 69 -13.5t59.5 -44t38.5 -87t2 -134.5q-20 -165 -99 -266.5t-198 -101.5q-72 0 -112 32zM80 261q-8 -73 29 -120
t105 -47q48 0 95 25.5t74 68.5q6 64 -3.5 111t-31.5 71.5t-47.5 36t-55.5 11.5q-65 0 -111 -42.5t-54 -114.5z" />
    <glyph glyph-name="colon" unicode=":" horiz-adv-x="188" 
d="M139 314q-2 -11 -10.5 -19t-19.5 -8t-18 8t-6 19q2 11 10.5 19t19.5 8t18 -8t6 -19zM88 22q-2 -11 -10.5 -19t-19.5 -8t-18 8t-6 19q2 11 10.5 19t19.5 8t18 -8t6 -19z" />
    <glyph glyph-name="semicolon" unicode=";" horiz-adv-x="188" 
d="M86 18q-3 -30 -23.5 -68t-45.5 -58l-11 9q46 56 51 97h-3q-23 4 -20 26q1 10 9 17.5t18 7.5q12 0 19 -8.5t6 -22.5zM139 314q-2 -11 -10.5 -19t-19.5 -8t-18 8t-6 19q2 11 10.5 19t19.5 8t18 -8t6 -19z" />
    <glyph glyph-name="less" unicode="&#x3c;" horiz-adv-x="393" 
d="M373 430l-277 -202l205 -201l-16 -17l-227 220l304 220z" />
    <glyph glyph-name="equal" unicode="=" horiz-adv-x="388" 
d="M332 320l-4 -26h-241l5 26h240zM305 166l-5 -26h-240l5 26h240z" />
    <glyph glyph-name="greater" unicode="&#x3e;" horiz-adv-x="393" 
d="M337 230l-304 -220l-11 20l277 202l-205 201l16 17z" />
    <glyph glyph-name="question" unicode="?" horiz-adv-x="386" 
d="M399 468q-7 -61 -50 -105t-115 -79l-62 -30l-19 -89h-23l16 107l66 33q72 36 109.5 73t43.5 89q6 58 -31.5 87t-97.5 29q-40 0 -86 -18t-77 -45l4 35q30 25 76 42t88 17q72 0 119 -37.5t39 -108.5zM120 49q11 0 18 -8t6 -19q-2 -11 -10.5 -19t-19.5 -8t-18 8t-6 19
q2 11 10.5 19t19.5 8z" />
    <glyph glyph-name="at" unicode="@" horiz-adv-x="672" 
d="M648 242q-9 -94 -74.5 -169t-130.5 -75q-54 0 -61 55q-17 -25 -45.5 -42t-56.5 -17q-61 0 -84.5 53t-2.5 130q20 75 78 128t120 53q33 0 62 -16l28 -1l-68 -255q-8 -29 3 -48t37 -19q54 0 109 68t63 154q10 106 -56.5 174.5t-172.5 68.5q-132 0 -234 -97.5t-114 -230.5
q-11 -123 66.5 -205t199.5 -82q116 0 222 68l8 -15q-110 -73 -234 -73q-133 0 -217.5 88.5t-73.5 217.5q13 144 123.5 247.5t253.5 103.5q117 0 189.5 -74t62.5 -190zM448 317q-29 19 -59 19q-53 0 -102 -47t-66 -114q-19 -65 -1 -111t68 -46q32 0 63.5 26t39.5 56z" />
    <glyph glyph-name="A" unicode="A" horiz-adv-x="534" 
d="M472 0h-34l-37 179h-281l-100 -179h-37l338 600h26zM394 209l-69 337l-188 -337h257z" />
    <glyph glyph-name="B" unicode="B" horiz-adv-x="452" 
d="M276 600q80 0 115.5 -41.5t27.5 -107.5q-6 -47 -34 -84.5t-76 -48.5q58 -8 85 -52.5t20 -100.5q-9 -72 -56.5 -118.5t-133.5 -46.5h-193l106 600h139zM257 300h-139l-47 -269h154q71 0 109 38.5t46 95.5q8 56 -21.5 95.5t-101.5 39.5zM385 451q7 53 -18.5 85.5
t-91.5 32.5h-109l-43 -238h122q65 0 99 34t41 86z" />
    <glyph glyph-name="C" unicode="C" horiz-adv-x="553" 
d="M553 556l-5 -36q-73 61 -175 61q-107 0 -187.5 -75.5t-95.5 -202.5q-15 -128 48 -206t171 -78q100 0 189 61l-5 -38q-83 -55 -189 -55q-119 0 -192 86.5t-56 229.5t108 226.5t213 83.5q107 0 176 -57z" />
    <glyph glyph-name="D" unicode="D" horiz-adv-x="568" 
d="M540 296q-20 -133 -107 -214.5t-241 -81.5h-161l106 600h143q105 0 169 -42.5t84 -109t7 -152.5zM277 568h-111l-96 -536h125q73 0 130.5 22t94 60t57.5 83.5t29 98.5q11 54 2 103.5t-32 87t-74.5 59.5t-124.5 22z" />
    <glyph glyph-name="E" unicode="E" horiz-adv-x="427" 
d="M443 600l-5 -31h-272l-43 -238h225l-6 -31h-224l-47 -269h272l-6 -31h-306l106 600h306z" />
    <glyph glyph-name="F" unicode="F" horiz-adv-x="391" 
d="M443 600l-5 -31h-272l-43 -238h225l-6 -31h-224l-53 -300h-34l106 600h306z" />
    <glyph glyph-name="G" unicode="G" horiz-adv-x="604" 
d="M556 557l-5 -37q-73 61 -174 61q-110 0 -191 -75.5t-96 -202.5t49 -205.5t174 -78.5q79 0 163 46l32 179h-119l6 31h152l-40 -229l-33 -16q-33 -17 -47.5 -22.5t-49 -13t-68.5 -7.5q-121 0 -195.5 86.5t-57.5 229.5t109.5 227t215.5 84q106 0 175 -57z" />
    <glyph glyph-name="H" unicode="H" horiz-adv-x="568" 
d="M565 600l-106 -600h-34l53 301h-360l-53 -301h-34l106 600h34l-48 -268h361l47 268h34z" />
    <glyph glyph-name="I" unicode="I" horiz-adv-x="174" 
d="M171 600l-106 -600h-34l106 600h34z" />
    <glyph glyph-name="J" unicode="J" horiz-adv-x="174" 
d="M171 600l-119 -677q-21 -121 -111 -121q-19 0 -35 7.5t-22 15.5l4 29q22 -22 51 -22q32 0 51 20.5t29 77.5l118 670h34z" />
    <glyph glyph-name="K" unicode="K" horiz-adv-x="479" 
d="M500 600l-289 -271l219 -329h-39l-204 307l-81 -75l-41 -232h-34l106 600h34l-57 -322l344 322h42z" />
    <glyph glyph-name="L" unicode="L" horiz-adv-x="391" 
d="M343 31l-6 -31h-306l106 600h34l-100 -569h272z" />
    <glyph glyph-name="M" unicode="M" horiz-adv-x="688" 
d="M579 0h-33l95 537q-50 -84 -62 -104l-261 -433h-27l-109 433l-24 104l-95 -537h-32l106 600h36l139 -555l336 555h37z" />
    <glyph glyph-name="N" unicode="N" horiz-adv-x="554" 
d="M551 600l-106 -600h-20l-267 528l-93 -528h-34l106 600h20l267 -528l93 528h34z" />
    <glyph glyph-name="O" unicode="O" horiz-adv-x="667" 
d="M639 300q-15 -138 -108 -226t-217 -88t-199 88t-60 226t108 226t217 88t199 -88.5t60 -225.5zM605 300q15 126 -51.5 204t-174.5 78q-109 0 -192 -77.5t-98 -204.5q-15 -126 51 -204t175 -78q108 0 191.5 78t98.5 204z" />
    <glyph glyph-name="P" unicode="P" horiz-adv-x="425" 
d="M441 419q-11 -75 -58 -123.5t-130 -48.5h-144l-44 -247h-34l106 600h159q83 0 119.5 -53t25.5 -128zM407 419q9 63 -19 106.5t-98 43.5h-124l-52 -291h141q68 0 105.5 41t46.5 100z" />
    <glyph glyph-name="Q" unicode="Q" horiz-adv-x="667" 
d="M605 300q15 126 -51.5 204t-174.5 78q-109 0 -192 -77.5t-98 -204.5q-15 -126 51 -204t175 -78q108 0 191.5 78t98.5 204zM327 -14q-31 -4 -74 -30t-62 -52q49 29 105 23q36 -4 72.5 -25.5t61 -45t59.5 -43t70 -19.5q92 0 121 107h25q-12 -60 -50.5 -100t-106.5 -40
q-36 0 -74 21.5t-65.5 48t-65.5 48t-74 21.5q-70 0 -125 -59l-17 15q15 34 56 74t86 59q-106 17 -166.5 102t-47.5 209q15 138 108 226t217 88t199 -88.5t60 -225.5q-15 -134 -103.5 -221.5t-208.5 -92.5z" />
    <glyph glyph-name="R" unicode="R" horiz-adv-x="490" 
d="M453 27l-5 -28q-18 -6 -37 -6q-46 0 -75 26.5t-48 85.5l-49 153h-128l-46 -258h-34l106 600h157q83 0 120 -51t27 -124q-9 -68 -52.5 -114t-115.5 -51l46 -141q17 -53 41 -74.5t63 -21.5q14 0 30 4zM407 425q9 59 -19.5 101.5t-97.5 42.5h-124l-50 -280h139
q70 0 106.5 38.5t45.5 97.5z" />
    <glyph glyph-name="S" unicode="S" horiz-adv-x="424" 
d="M408 568l-10 -29q-18 16 -53 30t-74 14q-60 0 -102 -30t-49 -80q-15 -104 105 -138q94 -27 129 -74t26 -116q-10 -74 -65 -116.5t-130 -42.5q-101 0 -169 70l12 33q70 -72 160 -72q62 0 106 35t52 94q8 57 -21.5 95t-114.5 64q-143 44 -124 170q9 60 62.5 99.5
t127.5 39.5q39 0 77 -15t55 -31z" />
    <glyph glyph-name="T" unicode="T" horiz-adv-x="473" 
d="M524 600l-5 -31h-204l-101 -569h-34l101 569h-204l5 31h442z" />
    <glyph glyph-name="U" unicode="U" horiz-adv-x="595" 
d="M592 600l-57 -321q-51 -293 -268 -293q-108 0 -160.5 74t-26.5 219l57 321h34l-57 -322q-23 -131 20 -195.5t135 -64.5q88 0 148.5 64.5t83.5 195.5l57 322h34z" />
    <glyph glyph-name="V" unicode="V" horiz-adv-x="534" 
d="M578 600l-337 -600h-26l-125 600h34l113 -544l304 544h37z" />
    <glyph glyph-name="W" unicode="W" horiz-adv-x="787" 
d="M831 600l-291 -600h-25l-67 534l-254 -534h-25l-79 600h34l69 -533l254 533h24l67 -533l256 533h37z" />
    <glyph glyph-name="X" unicode="X" horiz-adv-x="488" 
d="M524 600l-245 -295l150 -305h-37l-136 280l-234 -280h-42l259 311l-142 289h37l129 -265l219 265h42z" />
    <glyph glyph-name="Y" unicode="Y" horiz-adv-x="496" 
d="M542 600l-274 -360l-42 -240h-34l42 240l-145 360h35l131 -327l248 327h39z" />
    <glyph glyph-name="Z" unicode="Z" horiz-adv-x="443" 
d="M465 578l-413 -547h316l-5 -31h-352l-4 22l413 547h-317l5 31h352z" />
    <glyph glyph-name="bracketleft" unicode="[" horiz-adv-x="269" 
d="M307 678l-4 -21h-92l-128 -724h92l-4 -21h-120l136 766h120z" />
    <glyph glyph-name="backslash" unicode="\" horiz-adv-x="281" 
d="M245 -10l-20 -7l-159 629l20 7z" />
    <glyph glyph-name="bracketright" unicode="]" horiz-adv-x="269" 
d="M247 678l-136 -766h-120l4 21h92l128 724h-92l4 21h120z" />
    <glyph glyph-name="asciicircum" unicode="^" horiz-adv-x="424" 
d="M422 295l-20 -10l-124 286l-226 -286l-18 13l250 320z" />
    <glyph glyph-name="underscore" unicode="_" horiz-adv-x="293" 
d="M252 0l-4 -21h-288l4 21h288z" />
    <glyph glyph-name="grave" unicode="`" horiz-adv-x="300" 
d="M134 511q4 -3 13.5 -11t33 -27t56.5 -45l-9 -13q-35 23 -60.5 39t-36 22.5t-14.5 9.5q-20 14 -11 27q8 12 28 -2z" />
    <glyph glyph-name="a" unicode="a" horiz-adv-x="411" 
d="M372 344l-52 -292q-4 -20 0 -27.5t17 -7.5t21 5v-18q-16 -11 -35 -11q-50 0 -34 69q-19 -33 -55.5 -52t-74.5 -19q-74 0 -108.5 54t-18.5 133q14 75 69.5 124.5t129.5 49.5q58 0 106 -37l12 29h23zM330 290q-45 33 -101 33q-62 0 -107 -41.5t-58 -106.5
q-14 -67 13.5 -111t90.5 -44q45 0 85 31.5t49 81.5z" />
    <glyph glyph-name="b" unicode="b" horiz-adv-x="394" 
d="M355 166q-15 -76 -68 -126.5t-130 -50.5q-52 0 -85.5 30.5t-33.5 85.5q0 17 7 56l78 439l33 6l-58 -329q19 34 56.5 54.5t74.5 20.5q74 0 107.5 -53t18.5 -133zM323 169q14 68 -12.5 111t-89.5 43q-43 0 -84.5 -32t-50.5 -82l-13 -76q-3 -21 -3 -27q3 -88 89 -88
q66 0 108.5 41.5t55.5 109.5z" />
    <glyph glyph-name="c" unicode="c" horiz-adv-x="345" 
d="M321 322l-4 -31q-40 32 -93 32q-61 0 -106.5 -39.5t-54.5 -109.5q-10 -72 26.5 -114.5t100.5 -42.5q50 0 89 28l10 -22q-40 -34 -112 -34q-71 0 -114 52.5t-33 132.5t65.5 129t125.5 49q60 0 100 -30z" />
    <glyph glyph-name="d" unicode="d" horiz-adv-x="411" 
d="M418 606l-98 -554q-4 -20 0 -27.5t17 -7.5t21 5v-18q-16 -11 -35 -11q-50 0 -34 69q-19 -33 -55.5 -52t-74.5 -19q-74 0 -108.5 54t-18.5 133q14 75 69.5 124.5t129.5 49.5q54 0 103 -35l50 283zM330 290q-45 33 -101 33q-62 0 -107 -41.5t-58 -106.5q-14 -67 13.5 -111
t90.5 -44q45 0 85 31.5t49 81.5z" />
    <glyph glyph-name="e" unicode="e" horiz-adv-x="340" 
d="M311 284q-3 -44 -67 -88t-184 -60q1 -54 30 -86.5t81 -32.5q65 0 110 39l10 -22q-51 -45 -126 -45q-74 0 -110 56.5t-24 128.5q12 78 69 128t126 50q39 0 63 -19t22 -49zM278 283q1 20 -14 30.5t-42 10.5q-55 0 -101 -41t-58 -109q0 -2 -0.5 -4.5t-1 -4t-0.5 -2.5
q102 13 158.5 48t58.5 72z" />
    <glyph glyph-name="f" unicode="f" horiz-adv-x="204" 
d="M266 609l-4 -28q-10 4 -20 4q-35 0 -56 -20.5t-31 -82.5l-25 -141h90l-5 -27h-90l-74 -418q-16 -99 -93 -99q-34 0 -50 19l4 25q20 -16 43 -16q28 0 42.5 16.5t22.5 63.5l72 409h-65l5 27h65l25 141q13 72 42.5 102t75.5 30q14 0 26 -5z" />
    <glyph glyph-name="g" unicode="g" horiz-adv-x="400" 
d="M372 344l-64 -360q-18 -104 -63 -145t-117 -41q-56 0 -111 32v31q53 -34 114 -34q58 0 93.5 34.5t51.5 122.5l13 76q-22 -32 -58 -50.5t-72 -18.5q-74 0 -108.5 54t-18.5 133q14 75 69.5 124.5t129.5 49.5q58 0 106 -37l12 29h23zM330 290q-45 33 -101 33
q-62 0 -107 -41.5t-58 -106.5q-14 -67 13.5 -111t90.5 -44q45 0 85 31.5t49 81.5z" />
    <glyph glyph-name="h" unicode="h" horiz-adv-x="405" 
d="M354 4q-15 -11 -35 -11q-38 0 -38 41q0 20 17.5 104t17.5 110q0 74 -75 74q-48 0 -95.5 -43.5t-57.5 -100.5l-31 -178h-33l106 600l34 6l-54 -304l-9 -45q23 43 64.5 69t83.5 26q49 0 74.5 -26.5t25.5 -70.5q0 -29 -17.5 -114.5t-17.5 -105.5q0 -18 19 -18q14 0 21 5v-18
z" />
    <glyph glyph-name="i" unicode="i" horiz-adv-x="169" 
d="M122 309q0 -15 -24.5 -136t-24.5 -138q0 -18 19 -18q14 0 21 5v-18q-17 -11 -35 -11q-17 0 -27.5 10.5t-10.5 30.5q0 15 24.5 136t24.5 138q0 18 -19 18q-14 0 -21 -5v18q17 11 35 11q17 0 27.5 -10.5t10.5 -30.5zM110 478q1 10 9.5 18t19.5 8q10 0 17 -7.5t6 -18.5
q-1 -10 -9.5 -18t-19.5 -8q-10 0 -17 7.5t-6 18.5z" />
    <glyph glyph-name="j" unicode="j" horiz-adv-x="159" 
d="M108 478q1 10 9.5 18t19.5 8q10 0 17 -7.5t6 -18.5q-1 -10 -9.5 -18t-19.5 -8q-10 0 -17 7.5t-6 18.5zM118 291l-70 -395q-16 -99 -92 -99q-32 0 -52 20l5 25q19 -17 44 -17q28 0 42 17t22 65l68 384q4 20 0 27.5t-17 7.5t-21 -5v18q18 11 35 11q46 0 36 -59z" />
    <glyph glyph-name="k" unicode="k" horiz-adv-x="340" 
d="M342 341l-189 -144l-16 -10q21 -4 33.5 -20.5t30.5 -59.5q12 -29 20 -45t22.5 -29.5t31.5 -13.5q25 0 45 14l2 -20q-25 -20 -55 -20q-26 0 -45 17t-28 36.5t-30 69.5q-14 32 -23.5 41.5t-23.5 9.5q-32 0 -38 -38l-23 -129h-33l106 600l34 6l-76 -430q6 10 39 34l172 131
h44z" />
    <glyph glyph-name="l" unicode="l" horiz-adv-x="155" 
d="M162 606l-98 -554q-4 -20 0 -27.5t17 -7.5t21 5v-18q-16 -11 -35 -11q-46 0 -36 59l97 548z" />
    <glyph glyph-name="m" unicode="m" horiz-adv-x="623" 
d="M571 4q-15 -11 -35 -11q-38 0 -38 41q0 20 17.5 104t17.5 110q0 41 -16.5 57.5t-48.5 16.5q-45 0 -88 -43.5t-53 -100.5l-31 -178h-33l35 197q6 38 6 50q1 41 -15.5 58t-50.5 17q-45 0 -87.5 -43.5t-52.5 -100.5l-31 -178h-33l51 291q4 20 0 27.5t-17 7.5t-21 -5v18
q18 11 35 11q21 0 31.5 -15t4.5 -44l-7 -33q23 44 60 69t76 25q83 0 88 -85v-10q24 44 63 69.5t79 25.5q44 0 66.5 -26t22.5 -71q0 -29 -17.5 -114.5t-17.5 -105.5q0 -18 19 -18q13 0 21 5v-18z" />
    <glyph glyph-name="n" unicode="n" horiz-adv-x="415" 
d="M364 4q-15 -11 -35 -11q-38 0 -38 41q0 20 17.5 104t17.5 110q0 74 -75 74q-48 0 -95.5 -43t-57.5 -101l-31 -178h-33l51 291q4 20 0 27.5t-17 7.5t-21 -5v18q18 11 35 11q21 0 31.5 -15.5t4.5 -43.5l-7 -34q23 43 64.5 69t83.5 26q49 0 74.5 -26.5t25.5 -70.5
q0 -29 -17.5 -114.5t-17.5 -105.5q0 -18 19 -18q14 0 21 5v-18z" />
    <glyph glyph-name="o" unicode="o" horiz-adv-x="416" 
d="M223 354q74 0 118 -52.5t36 -131.5q-9 -79 -64.5 -131t-128.5 -52q-74 0 -118 52.5t-36 131.5q9 78 64.5 130.5t128.5 52.5zM222 325q-61 0 -106 -43t-53 -111q-8 -70 26.5 -112.5t95.5 -42.5t106 43t53 111q8 70 -26.5 112.5t-95.5 42.5z" />
    <glyph glyph-name="p" unicode="p" horiz-adv-x="417" 
d="M378 165q-14 -75 -69.5 -124.5t-128.5 -49.5q-55 0 -104 35l-39 -221h-33l65 365q3 21 11.5 59t13.5 64q-25 -71 -72 -124l-14 13q35 40 65.5 101.5t38.5 123.5h30l-22 -129q20 34 57 54t74 20q74 0 108.5 -54t18.5 -133zM346 168q14 67 -13 111t-90 44
q-45 0 -85.5 -31.5t-49.5 -81.5l-28 -157q45 -33 102 -33q61 0 105.5 42t58.5 106z" />
    <glyph glyph-name="q" unicode="q" horiz-adv-x="400" 
d="M330 290q-45 33 -101 33q-62 0 -107 -41.5t-58 -106.5q-14 -67 13.5 -111t90.5 -44q45 0 85 31.5t49 81.5zM287 -138q-4 -20 0 -27.5t17 -7.5t21 5v-18q-17 -11 -35 -11q-46 0 -36 59l35 200q-19 -33 -55.5 -52t-74.5 -19q-74 0 -108.5 54t-18.5 133q14 75 69.5 124.5
t129.5 49.5q58 0 106 -37l12 29h23z" />
    <glyph glyph-name="r" unicode="r" horiz-adv-x="295" 
d="M289 299q0 -21 -15.5 -36.5t-36.5 -14.5l-3 13q24 6 24 28q0 32 -40 32q-38 0 -74 -43t-46 -100l-31 -178h-33l51 291q4 20 0 27.5t-17 7.5t-21 -5v18q18 11 35 11q21 0 31.5 -15t4.5 -44l-6 -29q17 38 50.5 63t66.5 25q29 0 44.5 -14.5t15.5 -36.5z" />
    <glyph glyph-name="s" unicode="s" horiz-adv-x="292" 
d="M260 329l-9 -27q-42 21 -83 21q-74 0 -85 -53q-11 -55 64 -76q107 -33 92 -118q-7 -41 -40.5 -64t-80.5 -23q-58 0 -111 32l9 28q50 -31 102 -31q78 0 90 59q6 29 -9 51.5t-68 38.5q-93 27 -80 104q6 36 37.5 58.5t79.5 22.5q53 0 92 -23z" />
    <glyph glyph-name="t" unicode="t" horiz-adv-x="221" 
d="M212 341l-4 -27h-85l-39 -221q-14 -72 45 -72q25 0 43 13l5 -23q-25 -18 -56 -18q-37 0 -58 26.5t-12 73.5l39 221h-51l4 27h52l20 110l33 6l-20 -116h84z" />
    <glyph glyph-name="u" unicode="u" horiz-adv-x="415" 
d="M46 339q15 11 35 11q38 0 38 -41q0 -20 -18.5 -104t-18.5 -110q0 -74 75 -74q48 0 95.5 43t57.5 101l31 176h33l-51 -289q-4 -20 0 -27.5t17 -7.5t21 5v-18q-18 -11 -35 -11q-21 0 -31.5 15.5t-4.5 43.5l7 34q-23 -43 -64.5 -69t-83.5 -26q-49 0 -74.5 26.5t-25.5 70.5
q0 29 18.5 114.5t18.5 105.5q0 18 -19 18q-14 0 -21 -5v18z" />
    <glyph glyph-name="v" unicode="v" horiz-adv-x="372" 
d="M337 240q0 -98 -56 -174.5t-140 -76.5q-47 0 -72.5 28t-25.5 78q0 40 21 106t21 95q0 28 -23 28q-12 0 -28 -8v19q20 13 42 13q19 0 30.5 -13t11.5 -37q0 -29 -21 -95t-21 -106q0 -79 71 -79q65 0 111 67.5t46 154.5q0 58 -26 101h32q27 -37 27 -101z" />
    <glyph glyph-name="w" unicode="w" horiz-adv-x="567" 
d="M530 232q0 -97 -47.5 -170t-120.5 -73q-41 0 -66 26.5t-25 74.5q-19 -46 -55.5 -73.5t-78.5 -27.5q-44 0 -69 28.5t-25 77.5q0 40 21 106t21 95q0 28 -23 28q-12 0 -28 -8v19q20 13 42 13q19 0 30.5 -13t11.5 -37q0 -29 -21 -95t-21 -106q0 -79 70 -79q36 0 69.5 31.5
t50.5 88.5q8 68 19 142q9 63 27 63t9 -64q-5 -38 -27 -140q-10 -121 73 -121q55 0 92.5 64.5t37.5 150.5q0 67 -28 108h32q29 -39 29 -109z" />
    <glyph glyph-name="x" unicode="x" horiz-adv-x="377" 
d="M201 174l46 -113q18 -43 50 -43q22 0 40 13l5 -19q-23 -19 -54 -19q-49 0 -76 71l-32 81l-49 -77q-46 -75 -95 -75q-20 0 -32.5 13t-8.5 32h19q-1 -10 5 -15t16 -5q28 0 60 48l71 109l-42 104q-19 46 -51 46q-26 0 -40 -13l-5 19q22 19 54 19q49 0 77 -74l28 -72l43 67
q50 79 98 79q20 0 32.5 -12.5t8.5 -32.5h-19q1 9 -5 14.5t-16 5.5q-28 0 -63 -52z" />
    <glyph glyph-name="y" unicode="y" horiz-adv-x="405" 
d="M375 341l-62 -356q-18 -102 -62 -144.5t-124 -42.5q-47 0 -97 27v32q52 -29 99 -29q64 0 100 35t51 122l18 101q-23 -43 -64.5 -69t-83.5 -26q-49 0 -74.5 26.5t-25.5 70.5q0 29 18.5 114.5t18.5 105.5q0 18 -19 18q-13 0 -21 -5v18q15 11 35 11q38 0 38 -41
q0 -20 -18.5 -104t-18.5 -110q0 -74 75 -74q48 0 95.5 43t57.5 101l31 176h33z" />
    <glyph glyph-name="z" unicode="z" horiz-adv-x="339" 
d="M138 351q34 0 79 -17t55 -17q20 0 20 24h19q2 -29 -9 -55.5t-33.5 -49.5t-41.5 -37.5t-49 -33.5q-5 -3 -21 -13.5t-23 -15.5t-21 -14.5t-21.5 -17l-17 -17t-15 -19t-7.5 -19.5q6 4 14 3q9 0 60.5 -19t89.5 -19q31 0 47 13t22 44h20q-3 -86 -89 -86q-42 0 -97.5 20.5
t-63.5 20.5q-22 0 -20 -26h-19q-5 56 31.5 96.5t105.5 83.5q33 20 49.5 31t41 35t31.5 47q-5 -3 -12 -3q-9 0 -52 16t-73 16q-33 0 -49 -12t-25 -48h-20q3 43 27.5 66t66.5 23z" />
    <glyph glyph-name="braceleft" unicode="{" horiz-adv-x="274" 
d="M319 682q-40 -25 -55 -60t-33 -132q-19 -104 -49.5 -142t-81.5 -53q22 -7 34.5 -16.5t25 -31.5t11 -56t-8.5 -91q-17 -85 -14 -126t34 -66l-12 -14q-41 29 -47 69.5t12 138.5q7 42 7.5 73t-4 49.5t-16 32t-22.5 19.5t-29 13l2 15q27 9 42.5 17.5t34 28t31.5 54t22 87.5
q18 100 38 139.5t71 68.5z" />
    <glyph glyph-name="bar" unicode="|" horiz-adv-x="187" 
d="M188 687l-138 -782h-23l138 782h23z" />
    <glyph glyph-name="braceright" unicode="}" horiz-adv-x="274" 
d="M232 303l-3 -15q-35 -12 -55 -25t-41.5 -53t-33.5 -109q-18 -101 -37.5 -140t-70.5 -68l-7 17q40 25 55 60t33 132q10 55 23.5 92t32 57t34.5 29.5t41 16.5q-22 7 -35 16.5t-25 31.5t-10.5 56t8.5 91q17 85 14 126t-35 66l13 14q41 -29 47 -69.5t-12 -138.5
q-7 -42 -7.5 -73t4 -49.5t16 -32t22 -19.5t29.5 -13z" />
    <glyph glyph-name="asciitilde" unicode="~" horiz-adv-x="394" 
d="M346 246q-7 -51 -28 -78t-52 -27q-25 0 -76 42t-74 42q-40 0 -56 -76h-19q6 50 27.5 77t52.5 27q25 0 76.5 -42t73.5 -42q40 0 56 77h19z" />
    <glyph glyph-name="nbspace" unicode="&#xa0;" horiz-adv-x="147" 
 />
    <glyph glyph-name="exclamdown" unicode="&#xa1;" horiz-adv-x="196" 
d="M129 385q-11 0 -18 8t-6 19q2 11 10.5 19t19.5 8t18 -8t6 -19q-2 -11 -10.5 -19t-19.5 -8zM11 -162l85 435h24l-69 -435h-40z" />
    <glyph glyph-name="cent" unicode="&#xa2;" horiz-adv-x="345" 
d="M242 418l-54 -305q6 -1 19 -1q50 0 89 28l10 -22q-40 -34 -112 -34h-11l-30 -167h-22l30 170q-58 12 -90 62t-24 120q9 76 60 124t117 53l31 171h22l-30 -170q56 -3 91 -30l-4 -31q-40 32 -92 32zM166 117l53 299q-54 -6 -92.5 -45t-46.5 -102q-8 -60 16 -100t70 -52z
" />
    <glyph glyph-name="sterling" unicode="&#xa3;" horiz-adv-x="462" 
d="M456 583l-5 -32q-44 33 -94 33q-67 0 -111 -50t-64 -163l-9 -52h155l-4 -25h-155l-17 -94q-15 -84 -35 -121.5t-55 -48.5h318l-5 -30h-384l4 30q59 3 81 32t38 117l21 115h-76l5 25h75l9 52q42 243 213 243q51 0 95 -31z" />
    <glyph glyph-name="currency" unicode="&#xa4;" horiz-adv-x="468" 
d="M482 584l-5 -31q-38 32 -104 32q-75 0 -133 -55t-86 -152h180l-4 -24h-181q-5 -17 -11 -53q-3 -17 -5 -53h178l-4 -24h-176q-1 -99 39.5 -153.5t120.5 -54.5q61 0 110 32l-5 -32q-48 -30 -111 -30q-91 0 -140.5 62.5t-47.5 175.5h-61l4 24h58q2 26 6 53q6 36 10 53h-55
l4 24h57q33 113 100 175t155 62q67 0 107 -31z" />
    <glyph glyph-name="yen" unicode="&#xa5;" horiz-adv-x="499" 
d="M254 161h119l-4 -23h-119l-24 -138h-34l24 138h-118l4 23h118l14 77h-118l4 23h105l-136 339h35l131 -327l248 327h39l-259 -339h108l-4 -23h-119z" />
    <glyph glyph-name="brokenbar" unicode="&#xa6;" horiz-adv-x="187" 
d="M188 686l-57 -325h-23l57 325h23zM107 229l-57 -325h-23l57 325h23z" />
    <glyph glyph-name="section" unicode="&#xa7;" horiz-adv-x="388" 
d="M391 574l-10 -27q-13 13 -46 25.5t-71 12.5q-54 0 -91.5 -27t-45.5 -71q-15 -88 91 -119q88 -26 117.5 -67t21.5 -102q-7 -50 -43.5 -86.5t-88.5 -47.5q87 -43 71 -134q-9 -54 -56.5 -89.5t-115.5 -35.5q-39 0 -75.5 13.5t-47.5 26.5l9 27q15 -14 47 -26.5t71 -12.5
q54 0 91 27.5t45 71.5q15 88 -90 119q-88 25 -118 66.5t-21 101.5q7 51 43.5 87.5t87.5 47.5q-85 41 -70 134q8 54 55.5 89.5t115.5 35.5q40 0 75.5 -13.5t48.5 -26.5zM325 200q8 50 -16 82.5t-103 56.5q-54 -1 -93 -35.5t-47 -83.5t16.5 -82.5t103.5 -56.5q54 1 92.5 35.5
t46.5 83.5z" />
    <glyph glyph-name="dieresis" unicode="&#xa8;" horiz-adv-x="300" 
d="M234 440q1 10 8 16.5t17 6.5t16.5 -6.5t5.5 -16.5t-8.5 -16.5t-17.5 -6.5t-16 6.5t-5 16.5zM84 440q1 10 8 16.5t17 6.5t16.5 -6.5t5.5 -16.5t-8.5 -16.5t-17.5 -6.5t-16 6.5t-5 16.5z" />
    <glyph glyph-name="copyright" unicode="&#xa9;" horiz-adv-x="673" 
d="M664 300q-14 -131 -114.5 -223.5t-231.5 -92.5t-212.5 92t-67.5 224q14 131 114.5 223.5t231.5 92.5t212.5 -92t67.5 -224zM648 300q14 125 -63 212.5t-201 87.5t-220 -87.5t-110 -212.5q-14 -124 63.5 -212t201.5 -88q123 0 219 88t110 212zM466 131q-50 -34 -122 -34
q-81 0 -132.5 55t-41.5 147q10 93 72.5 148.5t143.5 55.5q74 0 116 -35l-3 -30q-45 37 -114 37t-121.5 -47.5t-61.5 -128.5q-9 -80 34 -127t113 -47q66 0 120 35z" />
    <glyph glyph-name="ordfeminine" unicode="&#xaa;" horiz-adv-x="370" 
d="M387 605l-47 -263q-3 -19 0.5 -25.5t14.5 -6.5q12 0 19 5v-16q-16 -12 -31 -12q-46 0 -31 64q-17 -30 -50 -47t-67 -17q-67 0 -97.5 48.5t-16.5 119.5q13 67 63 112t116 45q52 0 95 -34l11 27h21zM349 554q-40 30 -91 30q-55 0 -94.5 -37t-52.5 -95q-13 -60 11 -98.5
t81 -38.5q41 0 77 27.5t44 72.5z" />
    <glyph glyph-name="guillemotleft" unicode="&#xab;" horiz-adv-x="370" 
d="M354 327l-137 -122l93 -121l-15 -13l-112 136l160 136zM253 371l-184 -166l125 -165l-16 -12l-143 179l207 180z" />
    <glyph glyph-name="logicalnot" unicode="&#xac;" horiz-adv-x="496" 
d="M413 261l-32 -181h-27l28 155h-305l5 26h331z" />
    <glyph glyph-name="registered" unicode="&#xae;" horiz-adv-x="483" 
d="M499 384q-11 -96 -84 -163t-168 -67t-155 67.5t-50 162.5t84.5 162.5t169.5 67.5t154.5 -67.5t48.5 -162.5zM483 384q9 89 -45.5 151.5t-142.5 62.5t-157 -62.5t-79 -151.5t45.5 -151.5t143.5 -62.5t157 62.5t78 151.5zM369 442q-4 -31 -25.5 -53t-55.5 -26l19 -57
q14 -43 45 -43q8 0 12 3l-3 -20q-9 -3 -17 -3q-44 0 -60 53l-20 66h-51l-20 -114h-26l50 279h80q40 0 58.5 -25t13.5 -60zM343 443q4 27 -8 44.5t-40 17.5h-56l-22 -121h58q29 0 46.5 17t21.5 42z" />
    <glyph glyph-name="macron" unicode="&#xaf;" horiz-adv-x="300" 
d="M273 439l-4 -24h-189l4 24h189z" />
    <glyph glyph-name="degree" unicode="&#xb0;" horiz-adv-x="356" 
d="M236 612q62 0 101.5 -44.5t32.5 -105.5q-7 -62 -55.5 -105.5t-110.5 -43.5t-101.5 43.5t-32.5 105.5t56 106t110 44zM235 589q-52 0 -94 -37.5t-47 -89.5q-5 -53 27 -89.5t84 -36.5t94.5 37t47.5 89t-27.5 89.5t-84.5 37.5z" />
    <glyph glyph-name="plusminus" unicode="&#xb1;" horiz-adv-x="381" 
d="M358 302l-4 -26h-140l-26 -145h-26l26 145h-139l4 26h139l26 145h26l-26 -145h140zM309 25l-4 -25h-305l4 25h305z" />
    <glyph glyph-name="twosuperior" unicode="&#xb2;" horiz-adv-x="262" 
d="M266 517q-7 -57 -75 -120l-99 -92h142l-3 -25h-180l-3 15l113 107q21 20 32.5 32t25.5 35t17 46q4 34 -13 51.5t-46 17.5q-41 0 -81 -30l3 27q41 28 84 28q41 0 64.5 -24.5t18.5 -67.5z" />
    <glyph glyph-name="threesuperior" unicode="&#xb3;" horiz-adv-x="275" 
d="M295 584l-131 -114q14 3 25 2q38 -4 57.5 -30t15.5 -64q-5 -49 -38.5 -78t-80.5 -29q-45 0 -79 28l2 27q33 -31 77 -31q36 0 61 22t29 61q3 33 -13.5 53.5t-50.5 20.5q-27 0 -46 -13l-10 14l138 122h-142l3 25h181z" />
    <glyph glyph-name="acute" unicode="&#xb4;" horiz-adv-x="300" 
d="M232 511q20 14 28 2q9 -13 -11 -27q-4 -3 -14.5 -9.5t-36 -22.5t-60.5 -39l-9 13q33 26 56.5 45t33 27t13.5 11z" />
    <glyph glyph-name="mu" unicode="&#xb5;" horiz-adv-x="415" 
d="M71 31l-40 -226h-33l47 257q7 37 19 98t17 92.5t5 55.5q0 18 -19 18q-14 0 -21 -5v18q15 11 35 11q38 0 38 -41q0 -20 -18.5 -104t-18.5 -110q0 -74 75 -74q48 0 95.5 43t57.5 101l31 176h33l-51 -289q-4 -20 0 -27.5t17 -7.5t21 5v-18q-18 -11 -35 -11q-21 0 -31.5 15.5
t-4.5 43.5l7 34q-23 -43 -64.5 -69t-83.5 -26q-56 0 -78 40z" />
    <glyph glyph-name="paragraph" unicode="&#xb6;" horiz-adv-x="447" 
d="M70 453q11 64 64.5 105.5t116.5 41.5h231l-4 -20h-64l-136 -771h-21l136 771h-127l-136 -771h-21l84 477q-65 4 -99.5 54t-23.5 113z" />
    <glyph glyph-name="periodcentered" unicode="&#xb7;" horiz-adv-x="201" 
d="M125 205q-2 -11 -10.5 -19t-19.5 -8t-18 8t-6 19q2 11 10.5 19t19.5 8t18 -8t6 -19z" />
    <glyph glyph-name="cedilla" unicode="&#xb8;" horiz-adv-x="304" 
d="M9 -215l3 22q54 -2 89 14.5t39 51.5q4 30 -31.5 40t-74.5 -4l-1 16l93 92l20 -7l-69 -71q38 4 67 -13t26 -51q-5 -47 -49.5 -69.5t-111.5 -20.5z" />
    <glyph glyph-name="onesuperior" unicode="&#xb9;" horiz-adv-x="170" 
d="M115 280h-29l53 297l-36 -5l4 21l66 14z" />
    <glyph glyph-name="ordmasculine" unicode="&#xba;" horiz-adv-x="374" 
d="M253 614q67 0 106.5 -48t31.5 -118q-8 -71 -57.5 -118t-115.5 -47q-67 0 -107 47.5t-32 118.5q7 70 57.5 117.5t116.5 47.5zM252 586q-55 0 -95.5 -38t-47.5 -99q-7 -63 23.5 -100.5t85.5 -37.5q56 0 96 37.5t47 99.5q7 63 -23.5 100.5t-85.5 37.5z" />
    <glyph glyph-name="guillemotright" unicode="&#xbb;" horiz-adv-x="370" 
d="M328 207l-207 -179l-11 16l185 165l-125 166l16 12zM181 207l-161 -136l-11 17l137 121l-93 122l16 12z" />
    <glyph glyph-name="onequarter" unicode="&#xbc;" horiz-adv-x="507" 
d="M123 280h-29l53 297l-36 -5l4 21l66 14zM467 606l-439 -624l-16 12l439 624zM445 108l-4 -24h-54l-15 -84h-29l15 84h-147l-4 15l199 225h23l-38 -216h54zM392 276l-148 -168h118z" />
    <glyph glyph-name="onehalf" unicode="&#xbd;" horiz-adv-x="520" 
d="M123 280h-29l53 297l-36 -5l4 21l66 14zM467 606l-439 -624l-16 12l439 624zM492 237q-7 -57 -75 -120l-99 -92h142l-3 -25h-180l-3 15l113 107q21 20 32.5 32t25.5 35t17 46q4 34 -13 51.5t-46 17.5q-41 0 -81 -30l3 27q41 28 84 28q41 0 64.5 -24.5t18.5 -67.5z" />
    <glyph glyph-name="threequarters" unicode="&#xbe;" horiz-adv-x="600" 
d="M301 584l-131 -114q14 3 25 2q38 -4 57.5 -30t15.5 -64q-5 -49 -38.5 -78t-80.5 -29q-45 0 -79 28l2 27q33 -31 77 -31q36 0 61 22t29 61q3 33 -13.5 53.5t-50.5 20.5q-27 0 -46 -13l-10 14l138 122h-142l3 25h181zM539 108l-4 -24h-54l-15 -84h-29l15 84h-147l-4 15
l199 225h23l-38 -216h54zM486 276l-148 -168h118zM561 606l-439 -624l-16 12l439 624z" />
    <glyph glyph-name="questiondown" unicode="&#xbf;" horiz-adv-x="386" 
d="M269 384q-11 0 -18 8t-6 19q2 11 10.5 19t19.5 8t18 -8t6 -19q-2 -11 -10.5 -19t-19.5 -8zM-10 -31q7 61 50 105t115 79l62 30l19 89h23l-16 -107l-66 -33q-71 -35 -109 -72.5t-44 -89.5q-6 -58 31.5 -87t97.5 -29q40 0 86 18t77 45l-4 -35q-30 -25 -76 -42t-88 -17
q-72 0 -119 37.5t-39 108.5z" />
    <glyph glyph-name="Agrave" unicode="&#xc0;" horiz-adv-x="534" 
d="M472 0h-34l-37 179h-281l-100 -179h-37l338 600h26zM394 209l-69 337l-188 -337h257zM300 772q4 -3 13.5 -11t33 -27t56.5 -45l-9 -13q-35 23 -60.5 39t-36 22.5t-14.5 9.5q-20 14 -11 27q8 12 28 -2z" />
    <glyph glyph-name="Aacute" unicode="&#xc1;" horiz-adv-x="534" 
d="M472 0h-34l-37 179h-281l-100 -179h-37l338 600h26zM394 209l-69 337l-188 -337h257zM398 772q20 14 28 2q9 -13 -11 -27q-4 -3 -14.5 -9.5t-36 -22.5t-60.5 -39l-9 13q33 26 56.5 45t33 27t13.5 11z" />
    <glyph glyph-name="Acircumflex" unicode="&#xc2;" horiz-adv-x="534" 
d="M472 0h-34l-37 179h-281l-100 -179h-37l338 600h26zM394 209l-69 337l-188 -337h257zM444 690l-15 -14l-70 94l-102 -94l-14 15l121 114z" />
    <glyph glyph-name="Atilde" unicode="&#xc3;" horiz-adv-x="534" 
d="M472 0h-34l-37 179h-281l-100 -179h-37l338 600h26zM394 209l-69 337l-188 -337h257zM460 758q-6 -40 -23.5 -60.5t-41.5 -20.5q-22 0 -52 29t-44 29q-17 0 -26.5 -12.5t-15.5 -42.5h-20q12 81 65 81q22 0 52 -29t45 -29q32 0 41 55h20z" />
    <glyph glyph-name="Adieresis" unicode="&#xc4;" horiz-adv-x="534" 
d="M472 0h-34l-37 179h-281l-100 -179h-37l338 600h26zM394 209l-69 337l-188 -337h257zM400 701q1 10 8 16.5t17 6.5t16.5 -6.5t5.5 -16.5t-8.5 -16.5t-17.5 -6.5t-16 6.5t-5 16.5zM250 701q1 10 8 16.5t17 6.5t16.5 -6.5t5.5 -16.5t-8.5 -16.5t-17.5 -6.5t-16 6.5t-5 16.5
z" />
    <glyph glyph-name="Aring" unicode="&#xc5;" horiz-adv-x="534" 
d="M472 0h-34l-37 179h-281l-100 -179h-37l338 600h26zM394 209l-69 337l-188 -337h257zM367 846q36 0 59 -25.5t19 -62.5q-4 -36 -32 -61.5t-65 -25.5q-36 0 -59.5 25.5t-19.5 61.5q4 37 32.5 62.5t65.5 25.5zM364 825q-27 0 -49 -19.5t-24 -47.5q-2 -27 15 -46t44 -19
t48.5 19t24.5 46q3 28 -14.5 47.5t-44.5 19.5z" />
    <glyph glyph-name="AE" unicode="&#xc6;" horiz-adv-x="741" 
d="M759 600l-5 -31h-272l-43 -238h225l-6 -31h-224l-47 -269h272l-6 -31h-306l32 179h-235l-124 -179h-37l417 600h359zM448 569h-33l-250 -360h219z" />
    <glyph glyph-name="Ccedilla" unicode="&#xc7;" horiz-adv-x="553" 
d="M273 -11q-106 11 -169.5 96t-47.5 218q17 143 108 226.5t213 83.5q107 0 176 -57l-5 -36q-73 61 -175 61q-107 0 -187.5 -75.5t-95.5 -202.5q-15 -128 48 -206t171 -78q100 0 189 61l-5 -38q-83 -55 -189 -55h-4l-50 -51q38 4 67 -13t26 -51q-5 -47 -49.5 -69.5
t-111.5 -20.5l3 22q54 -2 89 14.5t39 51.5q4 30 -31.5 40t-74.5 -4l-1 16z" />
    <glyph glyph-name="Egrave" unicode="&#xc8;" horiz-adv-x="427" 
d="M443 600l-5 -31h-272l-43 -238h225l-6 -31h-224l-47 -269h272l-6 -31h-306l106 600h306zM262 772q4 -3 13.5 -11t33 -27t56.5 -45l-9 -13q-35 23 -60.5 39t-36 22.5t-14.5 9.5q-20 14 -11 27q8 12 28 -2z" />
    <glyph glyph-name="Eacute" unicode="&#xc9;" horiz-adv-x="427" 
d="M443 600l-5 -31h-272l-43 -238h225l-6 -31h-224l-47 -269h272l-6 -31h-306l106 600h306zM363 772q20 14 28 2q9 -13 -11 -27q-4 -3 -14.5 -9.5t-36 -22.5t-60.5 -39l-9 13q33 26 56.5 45t33 27t13.5 11z" />
    <glyph glyph-name="Ecircumflex" unicode="&#xca;" horiz-adv-x="427" 
d="M443 600l-5 -31h-272l-43 -238h225l-6 -31h-224l-47 -269h272l-6 -31h-306l106 600h306zM408 690l-15 -14l-70 94l-102 -94l-14 15l121 114z" />
    <glyph glyph-name="Edieresis" unicode="&#xcb;" horiz-adv-x="427" 
d="M443 600l-5 -31h-272l-43 -238h225l-6 -31h-224l-47 -269h272l-6 -31h-306l106 600h306zM364 701q1 10 8 16.5t17 6.5t16.5 -6.5t5.5 -16.5t-8.5 -16.5t-17.5 -6.5t-16 6.5t-5 16.5zM214 701q1 10 8 16.5t17 6.5t16.5 -6.5t5.5 -16.5t-8.5 -16.5t-17.5 -6.5t-16 6.5
t-5 16.5z" />
    <glyph glyph-name="Igrave" unicode="&#xcc;" horiz-adv-x="174" 
d="M171 600l-106 -600h-34l106 600h34zM115 772q4 -3 13.5 -11t33 -27t56.5 -45l-9 -13q-35 23 -60.5 39t-36 22.5t-14.5 9.5q-20 14 -11 27q8 12 28 -2z" />
    <glyph glyph-name="Iacute" unicode="&#xcd;" horiz-adv-x="174" 
d="M171 600l-106 -600h-34l106 600h34zM225 772q20 14 28 2q9 -13 -11 -27q-4 -3 -14.5 -9.5t-36 -22.5t-60.5 -39l-9 13q33 26 56.5 45t33 27t13.5 11z" />
    <glyph glyph-name="Icircumflex" unicode="&#xce;" horiz-adv-x="174" 
d="M171 600l-106 -600h-34l106 600h34zM268 690l-15 -14l-70 94l-102 -94l-14 15l121 114z" />
    <glyph glyph-name="Idieresis" unicode="&#xcf;" horiz-adv-x="174" 
d="M171 600l-106 -600h-34l106 600h34zM218 701q1 10 8 16.5t17 6.5t16.5 -6.5t5.5 -16.5t-8.5 -16.5t-17.5 -6.5t-16 6.5t-5 16.5zM68 701q1 10 8 16.5t17 6.5t16.5 -6.5t5.5 -16.5t-8.5 -16.5t-17.5 -6.5t-16 6.5t-5 16.5z" />
    <glyph glyph-name="Eth" unicode="&#xd0;" horiz-adv-x="568" 
d="M82 290h-55l4 25h56l50 285h143q105 0 169 -42.5t84 -109t7 -152.5q-20 -133 -107 -214.5t-241 -81.5h-161zM121 315h134l-4 -25h-135l-46 -258h125q73 0 130.5 22t94 60t57.5 83.5t29 98.5q11 54 2 103.5t-32 87t-74.5 59.5t-124.5 22h-111z" />
    <glyph glyph-name="Ntilde" unicode="&#xd1;" horiz-adv-x="554" 
d="M551 600l-106 -600h-20l-267 528l-93 -528h-34l106 600h20l267 -528l93 528h34zM468 758q-6 -40 -23.5 -60.5t-41.5 -20.5q-22 0 -52 29t-44 29q-17 0 -26.5 -12.5t-15.5 -42.5h-20q12 81 65 81q22 0 52 -29t45 -29q32 0 41 55h20z" />
    <glyph glyph-name="Ograve" unicode="&#xd2;" horiz-adv-x="667" 
d="M639 300q-15 -138 -108 -226t-217 -88t-199 88t-60 226t108 226t217 88t199 -88.5t60 -225.5zM605 300q15 126 -51.5 204t-174.5 78q-109 0 -192 -77.5t-98 -204.5q-15 -126 51 -204t175 -78q108 0 191.5 78t98.5 204zM352 772q4 -3 13.5 -11t33 -27t56.5 -45l-9 -13
q-35 23 -60.5 39t-36 22.5t-14.5 9.5q-20 14 -11 27q8 12 28 -2z" />
    <glyph glyph-name="Oacute" unicode="&#xd3;" horiz-adv-x="667" 
d="M639 300q-15 -138 -108 -226t-217 -88t-199 88t-60 226t108 226t217 88t199 -88.5t60 -225.5zM605 300q15 126 -51.5 204t-174.5 78q-109 0 -192 -77.5t-98 -204.5q-15 -126 51 -204t175 -78q108 0 191.5 78t98.5 204zM450 772q20 14 28 2q9 -13 -11 -27
q-4 -3 -14.5 -9.5t-36 -22.5t-60.5 -39l-9 13q33 26 56.5 45t33 27t13.5 11z" />
    <glyph glyph-name="Ocircumflex" unicode="&#xd4;" horiz-adv-x="667" 
d="M639 300q-15 -138 -108 -226t-217 -88t-199 88t-60 226t108 226t217 88t199 -88.5t60 -225.5zM605 300q15 126 -51.5 204t-174.5 78q-109 0 -192 -77.5t-98 -204.5q-15 -126 51 -204t175 -78q108 0 191.5 78t98.5 204zM496 690l-15 -14l-70 94l-102 -94l-14 15l121 114z
" />
    <glyph glyph-name="Otilde" unicode="&#xd5;" horiz-adv-x="667" 
d="M639 300q-15 -138 -108 -226t-217 -88t-199 88t-60 226t108 226t217 88t199 -88.5t60 -225.5zM605 300q15 126 -51.5 204t-174.5 78q-109 0 -192 -77.5t-98 -204.5q-15 -126 51 -204t175 -78q108 0 191.5 78t98.5 204zM512 758q-6 -40 -23.5 -60.5t-41.5 -20.5
q-22 0 -52 29t-44 29q-17 0 -26.5 -12.5t-15.5 -42.5h-20q12 81 65 81q22 0 52 -29t45 -29q32 0 41 55h20z" />
    <glyph glyph-name="Odieresis" unicode="&#xd6;" horiz-adv-x="667" 
d="M639 300q-15 -138 -108 -226t-217 -88t-199 88t-60 226t108 226t217 88t199 -88.5t60 -225.5zM605 300q15 126 -51.5 204t-174.5 78q-109 0 -192 -77.5t-98 -204.5q-15 -126 51 -204t175 -78q108 0 191.5 78t98.5 204zM452 701q1 10 8 16.5t17 6.5t16.5 -6.5t5.5 -16.5
t-8.5 -16.5t-17.5 -6.5t-16 6.5t-5 16.5zM302 701q1 10 8 16.5t17 6.5t16.5 -6.5t5.5 -16.5t-8.5 -16.5t-17.5 -6.5t-16 6.5t-5 16.5z" />
    <glyph glyph-name="multiply" unicode="&#xd7;" horiz-adv-x="390" 
d="M354 348l-139 -121l96 -120l-19 -16l-96 120l-139 -120l-16 19l140 120l-98 120l21 16l96 -120l139 121z" />
    <glyph glyph-name="Oslash" unicode="&#xd8;" horiz-adv-x="667" 
d="M522 534l-337 -478q56 -38 130 -38q108 0 191.5 78t98.5 204q9 77 -13.5 137.5t-69.5 96.5zM171 66l337 478q-55 38 -129 38q-109 0 -192 -77.5t-98 -204.5q-18 -154 82 -234zM152 39q-54 41 -80 109t-17 152q15 138 108 226t217 88q84 0 147 -43l49 70l14 -10l-49 -69
q54 -42 80.5 -110t17.5 -152q-15 -138 -108 -226t-217 -88q-85 0 -148 43l-49 -70l-14 10z" />
    <glyph glyph-name="Ugrave" unicode="&#xd9;" horiz-adv-x="595" 
d="M592 600l-57 -321q-51 -293 -268 -293q-108 0 -160.5 74t-26.5 219l57 321h34l-57 -322q-23 -131 20 -195.5t135 -64.5q88 0 148.5 64.5t83.5 195.5l57 322h34zM333 772q4 -3 13.5 -11t33 -27t56.5 -45l-9 -13q-35 23 -60.5 39t-36 22.5t-14.5 9.5q-20 14 -11 27
q8 12 28 -2z" />
    <glyph glyph-name="Uacute" unicode="&#xda;" horiz-adv-x="595" 
d="M592 600l-57 -321q-51 -293 -268 -293q-108 0 -160.5 74t-26.5 219l57 321h34l-57 -322q-23 -131 20 -195.5t135 -64.5q88 0 148.5 64.5t83.5 195.5l57 322h34zM431 772q20 14 28 2q9 -13 -11 -27q-4 -3 -14.5 -9.5t-36 -22.5t-60.5 -39l-9 13q33 26 56.5 45t33 27
t13.5 11z" />
    <glyph glyph-name="Ucircumflex" unicode="&#xdb;" horiz-adv-x="595" 
d="M592 600l-57 -321q-51 -293 -268 -293q-108 0 -160.5 74t-26.5 219l57 321h34l-57 -322q-23 -131 20 -195.5t135 -64.5q88 0 148.5 64.5t83.5 195.5l57 322h34zM477 690l-15 -14l-70 94l-102 -94l-14 15l121 114z" />
    <glyph glyph-name="Udieresis" unicode="&#xdc;" horiz-adv-x="595" 
d="M592 600l-57 -321q-51 -293 -268 -293q-108 0 -160.5 74t-26.5 219l57 321h34l-57 -322q-23 -131 20 -195.5t135 -64.5q88 0 148.5 64.5t83.5 195.5l57 322h34zM433 701q1 10 8 16.5t17 6.5t16.5 -6.5t5.5 -16.5t-8.5 -16.5t-17.5 -6.5t-16 6.5t-5 16.5zM283 701
q1 10 8 16.5t17 6.5t16.5 -6.5t5.5 -16.5t-8.5 -16.5t-17.5 -6.5t-16 6.5t-5 16.5z" />
    <glyph glyph-name="Yacute" unicode="&#xdd;" horiz-adv-x="496" 
d="M542 600l-274 -360l-42 -240h-34l42 240l-145 360h35l131 -327l248 327h39zM393 772q20 14 28 2q9 -13 -11 -27q-4 -3 -14.5 -9.5t-36 -22.5t-60.5 -39l-9 13q33 26 56.5 45t33 27t13.5 11z" />
    <glyph glyph-name="Thorn" unicode="&#xde;" horiz-adv-x="425" 
d="M171 600l-21 -118h125q83 0 120 -53t26 -128t-58.5 -123.5t-130.5 -48.5h-144l-23 -129h-34l106 600h34zM387 301q9 63 -19 106.5t-98 43.5h-125l-52 -291h142q68 0 105.5 41t46.5 100z" />
    <glyph glyph-name="germandbls" unicode="&#xdf;" 
d="M416 100q-7 -55 -48 -82t-100 -27q-55 0 -99 21l7 30q39 -22 96 -22q43 0 74.5 20.5t36.5 59.5q4 29 -11.5 51t-39 36.5t-47.5 29.5t-38.5 36.5t-10.5 50.5q3 23 25 46.5t46.5 40.5t47 45t26.5 59q6 44 -22 67.5t-77 23.5q-53 0 -92 -36.5t-49 -96.5l-80 -453h-33l80 453
q13 72 62 116.5t114 44.5q62 0 99 -31.5t30 -87.5q-4 -29 -19.5 -54.5t-35.5 -43t-39.5 -32.5t-34 -30.5t-16.5 -30.5q-3 -22 12.5 -40t39.5 -32t47.5 -29.5t38 -42t10.5 -60.5z" />
    <glyph glyph-name="agrave" unicode="&#xe0;" horiz-adv-x="411" 
d="M209 511q4 -3 13.5 -11t33 -27t56.5 -45l-9 -13q-35 23 -60.5 39t-36 22.5t-14.5 9.5q-20 14 -11 27q8 12 28 -2zM372 344l-52 -292q-4 -20 0 -27.5t17 -7.5t21 5v-18q-16 -11 -35 -11q-50 0 -34 69q-19 -33 -55.5 -52t-74.5 -19q-74 0 -108.5 54t-18.5 133
q14 75 69.5 124.5t129.5 49.5q58 0 106 -37l12 29h23zM330 290q-45 33 -101 33q-62 0 -107 -41.5t-58 -106.5q-14 -67 13.5 -111t90.5 -44q45 0 85 31.5t49 81.5z" />
    <glyph glyph-name="aacute" unicode="&#xe1;" horiz-adv-x="411" 
d="M372 344l-52 -292q-4 -20 0 -27.5t17 -7.5t21 5v-18q-16 -11 -35 -11q-50 0 -34 69q-19 -33 -55.5 -52t-74.5 -19q-74 0 -108.5 54t-18.5 133q14 75 69.5 124.5t129.5 49.5q58 0 106 -37l12 29h23zM330 290q-45 33 -101 33q-62 0 -107 -41.5t-58 -106.5
q-14 -67 13.5 -111t90.5 -44q45 0 85 31.5t49 81.5zM307 511q20 14 28 2q9 -13 -11 -27q-4 -3 -14.5 -9.5t-36 -22.5t-60.5 -39l-9 13q33 26 56.5 45t33 27t13.5 11z" />
    <glyph glyph-name="acircumflex" unicode="&#xe2;" horiz-adv-x="411" 
d="M372 344l-52 -292q-4 -20 0 -27.5t17 -7.5t21 5v-18q-16 -11 -35 -11q-50 0 -34 69q-19 -33 -55.5 -52t-74.5 -19q-74 0 -108.5 54t-18.5 133q14 75 69.5 124.5t129.5 49.5q58 0 106 -37l12 29h23zM330 290q-45 33 -101 33q-62 0 -107 -41.5t-58 -106.5
q-14 -67 13.5 -111t90.5 -44q45 0 85 31.5t49 81.5zM353 429l-15 -14l-70 94l-102 -94l-14 15l121 114z" />
    <glyph glyph-name="atilde" unicode="&#xe3;" horiz-adv-x="411" 
d="M372 344l-52 -292q-4 -20 0 -27.5t17 -7.5t21 5v-18q-16 -11 -35 -11q-50 0 -34 69q-19 -33 -55.5 -52t-74.5 -19q-74 0 -108.5 54t-18.5 133q14 75 69.5 124.5t129.5 49.5q58 0 106 -37l12 29h23zM330 290q-45 33 -101 33q-62 0 -107 -41.5t-58 -106.5
q-14 -67 13.5 -111t90.5 -44q45 0 85 31.5t49 81.5zM369 497q-6 -40 -23.5 -60.5t-41.5 -20.5q-22 0 -52 29t-44 29q-17 0 -26.5 -12.5t-15.5 -42.5h-20q12 81 65 81q22 0 52 -29t45 -29q32 0 41 55h20z" />
    <glyph glyph-name="adieresis" unicode="&#xe4;" horiz-adv-x="411" 
d="M372 344l-52 -292q-4 -20 0 -27.5t17 -7.5t21 5v-18q-16 -11 -35 -11q-50 0 -34 69q-19 -33 -55.5 -52t-74.5 -19q-74 0 -108.5 54t-18.5 133q14 75 69.5 124.5t129.5 49.5q58 0 106 -37l12 29h23zM330 290q-45 33 -101 33q-62 0 -107 -41.5t-58 -106.5
q-14 -67 13.5 -111t90.5 -44q45 0 85 31.5t49 81.5zM309 440q1 10 8 16.5t17 6.5t16.5 -6.5t5.5 -16.5t-8.5 -16.5t-17.5 -6.5t-16 6.5t-5 16.5zM159 440q1 10 8 16.5t17 6.5t16.5 -6.5t5.5 -16.5t-8.5 -16.5t-17.5 -6.5t-16 6.5t-5 16.5z" />
    <glyph glyph-name="aring" unicode="&#xe5;" horiz-adv-x="411" 
d="M372 344l-52 -292q-4 -20 0 -27.5t17 -7.5t21 5v-18q-16 -11 -35 -11q-50 0 -34 69q-19 -33 -55.5 -52t-74.5 -19q-74 0 -108.5 54t-18.5 133q14 75 69.5 124.5t129.5 49.5q58 0 106 -37l12 29h23zM330 290q-45 33 -101 33q-62 0 -107 -41.5t-58 -106.5
q-14 -67 13.5 -111t90.5 -44q45 0 85 31.5t49 81.5zM275 591q36 0 59 -25.5t19 -62.5q-4 -36 -32 -61.5t-65 -25.5q-36 0 -59.5 25.5t-19.5 61.5q4 37 32.5 62.5t65.5 25.5zM272 570q-27 0 -49 -19.5t-24 -47.5q-2 -27 15 -46t44 -19t48.5 19t24.5 46q3 28 -14.5 47.5
t-44.5 19.5z" />
    <glyph glyph-name="ae" unicode="&#xe6;" horiz-adv-x="560" 
d="M498 283q1 20 -14 30.5t-42 10.5q-55 0 -101 -41t-58 -109q0 -2 -0.5 -4.5t-1 -4t-0.5 -2.5q102 13 158.5 48t58.5 72zM252 178q-95 -7 -145.5 -34.5t-55.5 -68.5q-3 -30 12.5 -44t38.5 -14q54 0 149 91q-6 32 1 70zM289 265q26 40 69 63.5t88 23.5q39 0 63 -19t22 -49
q-3 -44 -67 -88t-184 -60q1 -54 30 -86.5t81 -32.5q65 0 110 39l10 -22q-51 -45 -126 -45q-48 0 -81 25.5t-46 67.5q-56 -53 -93.5 -72t-73.5 -19q-35 0 -55.5 23t-16.5 59q12 111 235 133l4 32q6 48 -11.5 67.5t-60.5 19.5q-52 0 -121 -39l4 32q66 36 124 36q96 0 96 -89z
" />
    <glyph glyph-name="ccedilla" unicode="&#xe7;" horiz-adv-x="345" 
d="M155 -10q-62 8 -98 59.5t-27 124.5q10 80 65.5 129t125.5 49q60 0 100 -30l-4 -31q-40 32 -93 32q-61 0 -106.5 -39.5t-54.5 -109.5q-10 -72 26.5 -114.5t100.5 -42.5q50 0 89 28l10 -22q-38 -32 -107 -34l-49 -50q38 4 67 -13t26 -51q-5 -47 -49.5 -69.5t-111.5 -20.5
l3 22q54 -2 89 14.5t39 51.5q4 30 -31.5 40t-74.5 -4l-1 16z" />
    <glyph glyph-name="egrave" unicode="&#xe8;" horiz-adv-x="340" 
d="M181 511q4 -3 13.5 -11t33 -27t56.5 -45l-9 -13q-35 23 -60.5 39t-36 22.5t-14.5 9.5q-20 14 -11 27q8 12 28 -2zM311 284q-3 -44 -67 -88t-184 -60q1 -54 30 -86.5t81 -32.5q65 0 110 39l10 -22q-51 -45 -126 -45q-74 0 -110 56.5t-24 128.5q12 78 69 128t126 50
q39 0 63 -19t22 -49zM278 283q1 20 -14 30.5t-42 10.5q-55 0 -101 -41t-58 -109q0 -2 -0.5 -4.5t-1 -4t-0.5 -2.5q102 13 158.5 48t58.5 72z" />
    <glyph glyph-name="eacute" unicode="&#xe9;" horiz-adv-x="340" 
d="M311 284q-3 -44 -67 -88t-184 -60q1 -54 30 -86.5t81 -32.5q65 0 110 39l10 -22q-51 -45 -126 -45q-74 0 -110 56.5t-24 128.5q12 78 69 128t126 50q39 0 63 -19t22 -49zM278 283q1 20 -14 30.5t-42 10.5q-55 0 -101 -41t-58 -109q0 -2 -0.5 -4.5t-1 -4t-0.5 -2.5
q102 13 158.5 48t58.5 72zM279 511q20 14 28 2q9 -13 -11 -27q-4 -3 -14.5 -9.5t-36 -22.5t-60.5 -39l-9 13q33 26 56.5 45t33 27t13.5 11z" />
    <glyph glyph-name="ecircumflex" unicode="&#xea;" horiz-adv-x="340" 
d="M311 284q-3 -44 -67 -88t-184 -60q1 -54 30 -86.5t81 -32.5q65 0 110 39l10 -22q-51 -45 -126 -45q-74 0 -110 56.5t-24 128.5q12 78 69 128t126 50q39 0 63 -19t22 -49zM278 283q1 20 -14 30.5t-42 10.5q-55 0 -101 -41t-58 -109q0 -2 -0.5 -4.5t-1 -4t-0.5 -2.5
q102 13 158.5 48t58.5 72zM325 429l-15 -14l-70 94l-102 -94l-14 15l121 114z" />
    <glyph glyph-name="edieresis" unicode="&#xeb;" horiz-adv-x="340" 
d="M311 284q-3 -44 -67 -88t-184 -60q1 -54 30 -86.5t81 -32.5q65 0 110 39l10 -22q-51 -45 -126 -45q-74 0 -110 56.5t-24 128.5q12 78 69 128t126 50q39 0 63 -19t22 -49zM278 283q1 20 -14 30.5t-42 10.5q-55 0 -101 -41t-58 -109q0 -2 -0.5 -4.5t-1 -4t-0.5 -2.5
q102 13 158.5 48t58.5 72zM281 440q1 10 8 16.5t17 6.5t16.5 -6.5t5.5 -16.5t-8.5 -16.5t-17.5 -6.5t-16 6.5t-5 16.5zM131 440q1 10 8 16.5t17 6.5t16.5 -6.5t5.5 -16.5t-8.5 -16.5t-17.5 -6.5t-16 6.5t-5 16.5z" />
    <glyph glyph-name="igrave" unicode="&#xec;" horiz-adv-x="169" 
d="M59 511q4 -3 13.5 -11t33 -27t56.5 -45l-9 -13q-35 23 -60.5 39t-36 22.5t-14.5 9.5q-20 14 -11 27q8 12 28 -2zM122 309q0 -15 -24.5 -136t-24.5 -138q0 -18 19 -18q14 0 21 5v-18q-17 -11 -35 -11q-17 0 -27.5 10.5t-10.5 30.5q0 15 24.5 136t24.5 138q0 18 -19 18
q-14 0 -21 -5v18q17 11 35 11q17 0 27.5 -10.5t10.5 -30.5z" />
    <glyph glyph-name="iacute" unicode="&#xed;" horiz-adv-x="169" 
d="M162 511q20 14 28 2q9 -13 -11 -27q-4 -3 -14.5 -9.5t-36 -22.5t-60.5 -39l-9 13q33 26 56.5 45t33 27t13.5 11zM122 309q0 -15 -24.5 -136t-24.5 -138q0 -18 19 -18q14 0 21 5v-18q-17 -11 -35 -11q-17 0 -27.5 10.5t-10.5 30.5q0 15 24.5 136t24.5 138q0 18 -19 18
q-14 0 -21 -5v18q17 11 35 11q17 0 27.5 -10.5t10.5 -30.5z" />
    <glyph glyph-name="icircumflex" unicode="&#xee;" horiz-adv-x="169" 
d="M122 309q0 -15 -24.5 -136t-24.5 -138q0 -18 19 -18q14 0 21 5v-18q-17 -11 -35 -11q-17 0 -27.5 10.5t-10.5 30.5q0 15 24.5 136t24.5 138q0 18 -19 18q-14 0 -21 -5v18q17 11 35 11q17 0 27.5 -10.5t10.5 -30.5zM208 429l-15 -14l-70 94l-102 -94l-14 15l121 114z" />
    <glyph glyph-name="idieresis" unicode="&#xef;" horiz-adv-x="169" 
d="M162 440q1 10 8 16.5t17 6.5t16.5 -6.5t5.5 -16.5t-8.5 -16.5t-17.5 -6.5t-16 6.5t-5 16.5zM12 440q1 10 8 16.5t17 6.5t16.5 -6.5t5.5 -16.5t-8.5 -16.5t-17.5 -6.5t-16 6.5t-5 16.5zM122 309q0 -15 -24.5 -136t-24.5 -138q0 -18 19 -18q14 0 21 5v-18q-17 -11 -35 -11
q-17 0 -27.5 10.5t-10.5 30.5q0 15 24.5 136t24.5 138q0 18 -19 18q-14 0 -21 -5v18q17 11 35 11q17 0 27.5 -10.5t10.5 -30.5z" />
    <glyph glyph-name="eth" unicode="&#xf0;" horiz-adv-x="416" 
d="M190 612q53 -39 95 -94l89 49l8 -19l-85 -47q103 -153 81 -331q-10 -81 -66 -132t-127 -51q-75 0 -119.5 54t-34.5 134q10 79 65 129t127 50q42 0 75.5 -20t49.5 -56q-13 122 -76 210l-94 -53l-8 20l90 50q-42 55 -87 90zM222 325q-61 0 -106 -43t-53 -111
q-8 -70 26.5 -112.5t95.5 -42.5t106 43t53 111q8 70 -26.5 112.5t-95.5 42.5z" />
    <glyph glyph-name="ntilde" unicode="&#xf1;" horiz-adv-x="415" 
d="M364 4q-15 -11 -35 -11q-38 0 -38 41q0 20 17.5 104t17.5 110q0 74 -75 74q-48 0 -95.5 -43t-57.5 -101l-31 -178h-33l51 291q4 20 0 27.5t-17 7.5t-21 -5v18q18 11 35 11q21 0 31.5 -15.5t4.5 -43.5l-7 -34q23 43 64.5 69t83.5 26q49 0 74.5 -26.5t25.5 -70.5
q0 -29 -17.5 -114.5t-17.5 -105.5q0 -18 19 -18q14 0 21 5v-18zM362 497q-6 -40 -23.5 -60.5t-41.5 -20.5q-22 0 -52 29t-44 29q-17 0 -26.5 -12.5t-15.5 -42.5h-20q12 81 65 81q22 0 52 -29t45 -29q32 0 41 55h20z" />
    <glyph glyph-name="ograve" unicode="&#xf2;" horiz-adv-x="416" 
d="M195 511q4 -3 13.5 -11t33 -27t56.5 -45l-9 -13q-35 23 -60.5 39t-36 22.5t-14.5 9.5q-20 14 -11 27q8 12 28 -2zM223 354q74 0 118 -52.5t36 -131.5q-9 -79 -64.5 -131t-128.5 -52q-74 0 -118 52.5t-36 131.5q9 78 64.5 130.5t128.5 52.5zM222 325q-61 0 -106 -43
t-53 -111q-8 -70 26.5 -112.5t95.5 -42.5t106 43t53 111q8 70 -26.5 112.5t-95.5 42.5z" />
    <glyph glyph-name="oacute" unicode="&#xf3;" horiz-adv-x="416" 
d="M223 354q74 0 118 -52.5t36 -131.5q-9 -79 -64.5 -131t-128.5 -52q-74 0 -118 52.5t-36 131.5q9 78 64.5 130.5t128.5 52.5zM222 325q-61 0 -106 -43t-53 -111q-8 -70 26.5 -112.5t95.5 -42.5t106 43t53 111q8 70 -26.5 112.5t-95.5 42.5zM293 511q20 14 28 2
q9 -13 -11 -27q-4 -3 -14.5 -9.5t-36 -22.5t-60.5 -39l-9 13q33 26 56.5 45t33 27t13.5 11z" />
    <glyph glyph-name="ocircumflex" unicode="&#xf4;" horiz-adv-x="416" 
d="M223 354q74 0 118 -52.5t36 -131.5q-9 -79 -64.5 -131t-128.5 -52q-74 0 -118 52.5t-36 131.5q9 78 64.5 130.5t128.5 52.5zM222 325q-61 0 -106 -43t-53 -111q-8 -70 26.5 -112.5t95.5 -42.5t106 43t53 111q8 70 -26.5 112.5t-95.5 42.5zM339 429l-15 -14l-70 94
l-102 -94l-14 15l121 114z" />
    <glyph glyph-name="otilde" unicode="&#xf5;" horiz-adv-x="416" 
d="M223 354q74 0 118 -52.5t36 -131.5q-9 -79 -64.5 -131t-128.5 -52q-74 0 -118 52.5t-36 131.5q9 78 64.5 130.5t128.5 52.5zM222 325q-61 0 -106 -43t-53 -111q-8 -70 26.5 -112.5t95.5 -42.5t106 43t53 111q8 70 -26.5 112.5t-95.5 42.5zM355 497q-6 -40 -23.5 -60.5
t-41.5 -20.5q-22 0 -52 29t-44 29q-17 0 -26.5 -12.5t-15.5 -42.5h-20q12 81 65 81q22 0 52 -29t45 -29q32 0 41 55h20z" />
    <glyph glyph-name="odieresis" unicode="&#xf6;" horiz-adv-x="416" 
d="M223 354q74 0 118 -52.5t36 -131.5q-9 -79 -64.5 -131t-128.5 -52q-74 0 -118 52.5t-36 131.5q9 78 64.5 130.5t128.5 52.5zM222 325q-61 0 -106 -43t-53 -111q-8 -70 26.5 -112.5t95.5 -42.5t106 43t53 111q8 70 -26.5 112.5t-95.5 42.5zM295 440q1 10 8 16.5t17 6.5
t16.5 -6.5t5.5 -16.5t-8.5 -16.5t-17.5 -6.5t-16 6.5t-5 16.5zM145 440q1 10 8 16.5t17 6.5t16.5 -6.5t5.5 -16.5t-8.5 -16.5t-17.5 -6.5t-16 6.5t-5 16.5z" />
    <glyph glyph-name="divide" unicode="&#xf7;" horiz-adv-x="390" 
d="M352 242l-5 -26h-305l6 26h304zM148 100q1 11 9.5 18.5t19.5 7.5t18 -7.5t6 -18.5q-2 -11 -10 -18.5t-19 -7.5t-18 7.5t-6 18.5zM193 358q2 11 9.5 18.5t18.5 7.5t18.5 -7.5t6.5 -18.5t-10 -18.5t-20 -7.5t-17.5 7.5t-5.5 18.5z" />
    <glyph glyph-name="oslash" unicode="&#xf8;" horiz-adv-x="416" 
d="M303 297l-187 -262q30 -19 69 -19q61 0 106 43t53 111q10 82 -41 127zM104 44l187 262q-32 19 -69 19q-61 0 -106 -43t-53 -111q-10 -84 41 -127zM86 20q-65 51 -56 151q9 78 64.5 130.5t128.5 52.5q49 0 85 -24l34 48l13 -9l-34 -48q65 -51 56 -151q-9 -79 -64.5 -131
t-128.5 -52q-49 0 -85 24l-34 -48l-13 9z" />
    <glyph glyph-name="ugrave" unicode="&#xf9;" horiz-adv-x="415" 
d="M196 511q4 -3 13.5 -11t33 -27t56.5 -45l-9 -13q-35 23 -60.5 39t-36 22.5t-14.5 9.5q-20 14 -11 27q8 12 28 -2zM46 339q15 11 35 11q38 0 38 -41q0 -20 -18.5 -104t-18.5 -110q0 -74 75 -74q48 0 95.5 43t57.5 101l31 176h33l-51 -289q-4 -20 0 -27.5t17 -7.5t21 5v-18
q-18 -11 -35 -11q-21 0 -31.5 15.5t-4.5 43.5l7 34q-23 -43 -64.5 -69t-83.5 -26q-49 0 -74.5 26.5t-25.5 70.5q0 29 18.5 114.5t18.5 105.5q0 18 -19 18q-14 0 -21 -5v18z" />
    <glyph glyph-name="uacute" unicode="&#xfa;" horiz-adv-x="415" 
d="M46 339q15 11 35 11q38 0 38 -41q0 -20 -18.5 -104t-18.5 -110q0 -74 75 -74q48 0 95.5 43t57.5 101l31 176h33l-51 -289q-4 -20 0 -27.5t17 -7.5t21 5v-18q-18 -11 -35 -11q-21 0 -31.5 15.5t-4.5 43.5l7 34q-23 -43 -64.5 -69t-83.5 -26q-49 0 -74.5 26.5t-25.5 70.5
q0 29 18.5 114.5t18.5 105.5q0 18 -19 18q-14 0 -21 -5v18zM294 511q20 14 28 2q9 -13 -11 -27q-4 -3 -14.5 -9.5t-36 -22.5t-60.5 -39l-9 13q33 26 56.5 45t33 27t13.5 11z" />
    <glyph glyph-name="ucircumflex" unicode="&#xfb;" horiz-adv-x="415" 
d="M46 339q15 11 35 11q38 0 38 -41q0 -20 -18.5 -104t-18.5 -110q0 -74 75 -74q48 0 95.5 43t57.5 101l31 176h33l-51 -289q-4 -20 0 -27.5t17 -7.5t21 5v-18q-18 -11 -35 -11q-21 0 -31.5 15.5t-4.5 43.5l7 34q-23 -43 -64.5 -69t-83.5 -26q-49 0 -74.5 26.5t-25.5 70.5
q0 29 18.5 114.5t18.5 105.5q0 18 -19 18q-14 0 -21 -5v18zM340 429l-15 -14l-70 94l-102 -94l-14 15l121 114z" />
    <glyph glyph-name="udieresis" unicode="&#xfc;" horiz-adv-x="415" 
d="M46 339q15 11 35 11q38 0 38 -41q0 -20 -18.5 -104t-18.5 -110q0 -74 75 -74q48 0 95.5 43t57.5 101l31 176h33l-51 -289q-4 -20 0 -27.5t17 -7.5t21 5v-18q-18 -11 -35 -11q-21 0 -31.5 15.5t-4.5 43.5l7 34q-23 -43 -64.5 -69t-83.5 -26q-49 0 -74.5 26.5t-25.5 70.5
q0 29 18.5 114.5t18.5 105.5q0 18 -19 18q-14 0 -21 -5v18zM296 440q1 10 8 16.5t17 6.5t16.5 -6.5t5.5 -16.5t-8.5 -16.5t-17.5 -6.5t-16 6.5t-5 16.5zM146 440q1 10 8 16.5t17 6.5t16.5 -6.5t5.5 -16.5t-8.5 -16.5t-17.5 -6.5t-16 6.5t-5 16.5z" />
    <glyph glyph-name="yacute" unicode="&#xfd;" horiz-adv-x="405" 
d="M375 341l-62 -356q-18 -102 -62 -144.5t-124 -42.5q-47 0 -97 27v32q52 -29 99 -29q64 0 100 35t51 122l18 101q-23 -43 -64.5 -69t-83.5 -26q-49 0 -74.5 26.5t-25.5 70.5q0 29 18.5 114.5t18.5 105.5q0 18 -19 18q-13 0 -21 -5v18q15 11 35 11q38 0 38 -41
q0 -20 -18.5 -104t-18.5 -110q0 -74 75 -74q48 0 95.5 43t57.5 101l31 176h33zM299 511q20 14 28 2q9 -13 -11 -27q-4 -3 -14.5 -9.5t-36 -22.5t-60.5 -39l-9 13q33 26 56.5 45t33 27t13.5 11z" />
    <glyph glyph-name="thorn" unicode="&#xfe;" horiz-adv-x="417" 
d="M346 168q14 67 -13 111t-90 44q-45 0 -85.5 -31.5t-49.5 -81.5l-28 -157q45 -33 102 -33q61 0 105.5 42t58.5 106zM144 600l33 6l-57 -328q20 34 57 54t74 20q74 0 108.5 -54t18.5 -133q-14 -75 -69.5 -124.5t-128.5 -49.5q-55 0 -104 35l-39 -221h-33l65 365
q3 21 11.5 59t13.5 64q-25 -71 -72 -124l-14 13q82 95 104 225z" />
    <glyph glyph-name="ydieresis" unicode="&#xff;" horiz-adv-x="405" 
d="M375 341l-62 -356q-18 -102 -62 -144.5t-124 -42.5q-47 0 -97 27v32q52 -29 99 -29q64 0 100 35t51 122l18 101q-23 -43 -64.5 -69t-83.5 -26q-49 0 -74.5 26.5t-25.5 70.5q0 29 18.5 114.5t18.5 105.5q0 18 -19 18q-13 0 -21 -5v18q15 11 35 11q38 0 38 -41
q0 -20 -18.5 -104t-18.5 -110q0 -74 75 -74q48 0 95.5 43t57.5 101l31 176h33zM295 440q1 10 8 16.5t17 6.5t16.5 -6.5t5.5 -16.5t-8.5 -16.5t-17.5 -6.5t-16 6.5t-5 16.5zM145 440q1 10 8 16.5t17 6.5t16.5 -6.5t5.5 -16.5t-8.5 -16.5t-17.5 -6.5t-16 6.5t-5 16.5z" />
    <glyph glyph-name="dotlessi" unicode="&#x131;" horiz-adv-x="169" 
d="M122 309q0 -15 -24.5 -136t-24.5 -138q0 -18 19 -18q14 0 21 5v-18q-17 -11 -35 -11q-17 0 -27.5 10.5t-10.5 30.5q0 15 24.5 136t24.5 138q0 18 -19 18q-14 0 -21 -5v18q17 11 35 11q17 0 27.5 -10.5t10.5 -30.5z" />
    <glyph glyph-name="Lslash" unicode="&#x141;" horiz-adv-x="391" 
d="M343 31l-6 -31h-306l50 284l-63 -46l-11 19l79 57l51 286h34l-45 -259l85 62l10 -19l-101 -73l-49 -280h272z" />
    <glyph glyph-name="lslash" unicode="&#x142;" horiz-adv-x="155" 
d="M116 343l61 44l10 -18l-77 -55l-46 -262q-4 -20 0 -27.5t17 -7.5t21 5v-18q-16 -11 -35 -11q-46 0 -36 59l41 235l-63 -46l-10 19l79 56l50 284l34 6z" />
    <glyph glyph-name="OE" unicode="&#x152;" horiz-adv-x="822" 
d="M837 600l-5 -31h-272l-43 -238h225l-6 -31h-224l-47 -269h272l-6 -31h-415q-105 0 -169 42.5t-84 109t-7 152.5q20 133 107 214.5t241 81.5h433zM319 32h111l96 536h-125q-140 0 -217 -76t-94 -188q-11 -54 -2 -103.5t32 -87t74.5 -59.5t124.5 -22z" />
    <glyph glyph-name="oe" unicode="&#x153;" horiz-adv-x="654" 
d="M350 89q-27 -47 -71 -74.5t-95 -27.5q-74 0 -118 52.5t-36 131.5q9 78 64.5 130.5t128.5 52.5q54 0 93 -30t54 -79q27 49 73.5 78t96.5 29q39 0 63 -19t22 -49q-3 -44 -67 -88t-184 -60q1 -54 30 -86.5t81 -32.5q65 0 110 39l10 -22q-51 -45 -126 -45q-49 0 -82 28
t-47 72zM222 325q-61 0 -106 -43t-53 -111q-8 -70 26.5 -112.5t95.5 -42.5t106 43t53 111q8 70 -26.5 112.5t-95.5 42.5zM592 283q1 20 -14 30.5t-42 10.5q-55 0 -101 -41t-58 -109q0 -2 -0.5 -4.5t-1 -4t-0.5 -2.5q102 13 158.5 48t58.5 72z" />
    <glyph glyph-name="Scaron" unicode="&#x160;" horiz-adv-x="424" 
d="M408 568l-10 -29q-18 16 -53 30t-74 14q-60 0 -102 -30t-49 -80q-15 -104 105 -138q94 -27 129 -74t26 -116q-10 -74 -65 -116.5t-130 -42.5q-101 0 -169 70l12 33q70 -72 160 -72q62 0 106 35t52 94q8 57 -21.5 95t-114.5 64q-143 44 -124 170q9 60 62.5 99.5
t127.5 39.5q39 0 77 -15t55 -31zM398 791l-120 -114l-81 115l15 14l70 -94l102 94z" />
    <glyph glyph-name="scaron" unicode="&#x161;" horiz-adv-x="292" 
d="M260 329l-9 -27q-42 21 -83 21q-74 0 -85 -53q-11 -55 64 -76q107 -33 92 -118q-7 -41 -40.5 -64t-80.5 -23q-58 0 -111 32l9 28q50 -31 102 -31q78 0 90 59q6 29 -9 51.5t-68 38.5q-93 27 -80 104q6 36 37.5 58.5t79.5 22.5q53 0 92 -23zM288 530l-120 -114l-81 115
l15 14l70 -94l102 94z" />
    <glyph glyph-name="Ydieresis" unicode="&#x178;" horiz-adv-x="496" 
d="M542 600l-274 -360l-42 -240h-34l42 240l-145 360h35l131 -327l248 327h39zM385 701q1 10 8 16.5t17 6.5t16.5 -6.5t5.5 -16.5t-8.5 -16.5t-17.5 -6.5t-16 6.5t-5 16.5zM235 701q1 10 8 16.5t17 6.5t16.5 -6.5t5.5 -16.5t-8.5 -16.5t-17.5 -6.5t-16 6.5t-5 16.5z" />
    <glyph glyph-name="Zcaron" unicode="&#x17d;" horiz-adv-x="443" 
d="M465 578l-413 -547h316l-5 -31h-352l-4 22l413 547h-317l5 31h352zM412 791l-120 -114l-81 115l15 14l70 -94l102 94z" />
    <glyph glyph-name="zcaron" unicode="&#x17e;" horiz-adv-x="339" 
d="M138 351q34 0 79 -17t55 -17q20 0 20 24h19q2 -29 -9 -55.5t-33.5 -49.5t-41.5 -37.5t-49 -33.5q-5 -3 -21 -13.5t-23 -15.5t-21 -14.5t-21.5 -17l-17 -17t-15 -19t-7.5 -19.5q6 4 14 3q9 0 60.5 -19t89.5 -19q31 0 47 13t22 44h20q-3 -86 -89 -86q-42 0 -97.5 20.5
t-63.5 20.5q-22 0 -20 -26h-19q-5 56 31.5 96.5t105.5 83.5q33 20 49.5 31t41 35t31.5 47q-5 -3 -12 -3q-9 0 -52 16t-73 16q-33 0 -49 -12t-25 -48h-20q3 43 27.5 66t66.5 23zM316 530l-120 -114l-81 115l15 14l70 -94l102 94z" />
    <glyph glyph-name="florin" unicode="&#x192;" horiz-adv-x="242" 
d="M330 609l-7 -26q-18 3 -23 3q-46 0 -74 -28t-48 -104l-31 -121h111l-5 -28h-114l-100 -389q-30 -118 -127 -118q-30 0 -49 16l6 28q18 -16 43 -16q70 0 94 91l100 388h-83l5 28h86l31 120q23 91 61.5 126t95.5 35q16 0 28 -5z" />
    <glyph glyph-name="circumflex" unicode="&#x2c6;" horiz-adv-x="300" 
d="M278 429l-15 -14l-70 94l-102 -94l-14 15l121 114z" />
    <glyph glyph-name="caron" unicode="&#x2c7;" horiz-adv-x="300" 
d="M295 530l-120 -114l-81 115l15 14l70 -94l102 94z" />
    <glyph glyph-name="breve" unicode="&#x2d8;" horiz-adv-x="300" 
d="M276 500q-11 -39 -38 -62t-60 -23t-54.5 22.5t-25.5 62.5l14 2q13 -64 68 -64q26 0 48.5 17.5t34.5 46.5z" />
    <glyph glyph-name="dotaccent" unicode="&#x2d9;" horiz-adv-x="300" 
d="M159 440q1 10 8 16.5t17 6.5t16.5 -6.5t5.5 -16.5t-8.5 -16.5t-17.5 -6.5t-16 6.5t-5 16.5z" />
    <glyph glyph-name="ring" unicode="&#x2da;" horiz-adv-x="300" 
d="M200 591q36 0 59 -25.5t19 -62.5q-4 -36 -32 -61.5t-65 -25.5q-36 0 -59.5 25.5t-19.5 61.5q4 37 32.5 62.5t65.5 25.5zM197 570q-27 0 -49 -19.5t-24 -47.5q-2 -27 15 -46t44 -19t48.5 19t24.5 46q3 28 -14.5 47.5t-44.5 19.5z" />
    <glyph glyph-name="ogonek" unicode="&#x2db;" horiz-adv-x="300" 
d="M151 -79q-8 -29 -33 -47t-56 -18q-33 0 -52 22.5t-16 55.5q5 40 44 63.5t77 10.5v-6q-2 0 -7 -1.5t-8 -0.5h-9q-27 -2 -49 -18.5t-25 -41.5q-4 -27 10.5 -45t41.5 -18q40 0 61 31q7 9 11 21l7 -7z" />
    <glyph glyph-name="tilde" unicode="&#x2dc;" horiz-adv-x="300" 
d="M294 497q-6 -40 -23.5 -60.5t-41.5 -20.5q-22 0 -52 29t-44 29q-17 0 -26.5 -12.5t-15.5 -42.5h-20q12 81 65 81q22 0 52 -29t45 -29q32 0 41 55h20z" />
    <glyph glyph-name="hungarumlaut" unicode="&#x2dd;" horiz-adv-x="300" 
d="M167 511q20 14 28 2q9 -13 -11 -27q-4 -3 -14.5 -9.5t-36 -22.5t-60.5 -39l-9 13q33 26 56.5 45t33 27t13.5 11zM271 511q20 14 28 2q9 -13 -11 -27q-4 -3 -14.5 -9.5t-36 -22.5t-60.5 -39l-9 13q33 26 56.5 45t33 27t13.5 11z" />
    <glyph glyph-name="pi" unicode="&#x3c0;" horiz-adv-x="495" 
d="M482 341l-5 -29h-59l-55 -312h-33l55 312h-242l-55 -312h-33l55 312h-59l5 29h426z" />
    <glyph glyph-name="endash" unicode="&#x2013;" horiz-adv-x="364" 
d="M369 263l-5 -24h-357l6 24h356z" />
    <glyph glyph-name="emdash" unicode="&#x2014;" horiz-adv-x="596" 
d="M601 263l-5 -24h-589l6 24h588z" />
    <glyph glyph-name="quoteleft" unicode="&#x2018;" horiz-adv-x="178" 
d="M191 598q-45 -54 -51 -97h4q9 -1 14.5 -8t4.5 -17t-8.5 -17.5t-18.5 -7.5t-18.5 8.5t-6.5 22.5q3 30 23.5 67.5t45.5 58.5z" />
    <glyph glyph-name="quoteright" unicode="&#x2019;" horiz-adv-x="178" 
d="M181 576q-2 -30 -22.5 -67.5t-45.5 -58.5l-12 10q45 53 52 97h-4q-9 1 -15 8t-5 17q1 11 9 18.5t19 7.5t18 -8.5t6 -23.5z" />
    <glyph glyph-name="quotesinglbase" unicode="&#x201a;" horiz-adv-x="180" 
d="M83 18q-2 -30 -22.5 -68t-45.5 -58l-11 9q45 57 51 97h-4q-9 1 -14.5 8.5t-4.5 17.5t8.5 17.5t18.5 7.5t18 -8.5t6 -22.5z" />
    <glyph glyph-name="quotedblleft" unicode="&#x201c;" horiz-adv-x="288" 
d="M191 598q-45 -54 -51 -97h4q9 -1 14.5 -8t4.5 -17t-8.5 -17.5t-18.5 -7.5t-18.5 8.5t-6.5 22.5q3 30 23.5 67.5t45.5 58.5zM302 598q-46 -53 -51 -97h3q22 -2 20 -25q-1 -10 -9 -17.5t-18 -7.5q-12 0 -19 8.5t-6 22.5q3 30 23.5 67.5t45.5 58.5z" />
    <glyph glyph-name="quotedblright" unicode="&#x201d;" horiz-adv-x="288" 
d="M181 576q-2 -30 -22.5 -67.5t-45.5 -58.5l-12 10q45 53 52 97h-4q-9 1 -15 8t-5 17q1 11 9 18.5t19 7.5t18 -8.5t6 -23.5zM292 576q-3 -30 -23.5 -67.5t-45.5 -58.5l-11 10q46 53 51 97h-3q-22 2 -20 25q1 11 9 18.5t18 7.5q12 0 19 -8.5t6 -23.5z" />
    <glyph glyph-name="quotedblbase" unicode="&#x201e;" horiz-adv-x="288" 
d="M83 18q-2 -30 -22.5 -68t-45.5 -58l-11 9q45 57 51 97h-4q-9 1 -14.5 8.5t-4.5 17.5t8.5 17.5t18.5 7.5t18 -8.5t6 -22.5zM194 18q-3 -30 -23.5 -68t-45.5 -58l-11 9q46 56 51 97h-3q-23 4 -20 26q1 10 9 17.5t18 7.5q12 0 19 -8.5t6 -22.5z" />
    <glyph glyph-name="dagger" unicode="&#x2020;" horiz-adv-x="380" 
d="M237 446l-33 -238l-82 -405h-11l60 405l52 238q-29 -3 -54.5 -6t-37 -4.5t-17.5 -1.5q-12 1 -18.5 6.5t-4.5 14.5q4 20 32 18q4 0 15.5 -2.5t34.5 -5.5t53 -5q5 38 6.5 68t1 38.5t0.5 19.5q4 28 23 28q21 0 17 -27q-1 -6 -5.5 -19.5t-13 -42t-17.5 -65.5q30 3 55 6.5
t37 5t18 1.5q12 -1 18.5 -6.5t4.5 -14.5q-4 -20 -32 -18q-4 0 -16 2.5t-34 5t-52 4.5z" />
    <glyph glyph-name="daggerdbl" unicode="&#x2021;" horiz-adv-x="380" 
d="M206 214l-51 -238q29 3 54.5 6t37 4.5t17.5 1.5q12 -1 18.5 -6.5t4.5 -14.5q-4 -20 -32 -18q-4 0 -15.5 2.5t-34.5 5.5t-53 5q-5 -38 -6.5 -68t-1 -38.5t-0.5 -19.5q-4 -28 -23 -28q-21 0 -17 27q1 6 5.5 19.5t13 42t17.5 65.5q-30 -3 -55 -6.5t-37 -5t-18 -1.5
q-12 1 -18.5 6.5t-4.5 14.5q4 20 32 18q4 0 16 -2.5t34 -5t52 -4.5l32 232l51 238q-29 -3 -54.5 -6t-37 -4.5t-17.5 -1.5q-12 1 -18.5 6.5t-4.5 14.5q4 20 32 18q4 0 15.5 -2.5t34.5 -5.5t53 -5q5 38 6.5 68t1 38.5t0.5 19.5q3 28 23 28q21 0 17 -27q-1 -6 -5.5 -19.5
t-13 -42t-17.5 -65.5q30 3 55 6.5t37 5t18 1.5q12 -1 18.5 -6.5t4.5 -14.5q-4 -20 -32 -18q-4 0 -16 2.5t-34 5t-52 4.5z" />
    <glyph glyph-name="bullet" unicode="&#x2022;" horiz-adv-x="208" 
d="M54 243q2 22 20 38.5t41 16.5q22 0 36.5 -16t12.5 -39q-2 -22 -20 -38.5t-41 -16.5q-22 0 -36.5 16t-12.5 39z" />
    <glyph glyph-name="ellipsis" unicode="&#x2026;" horiz-adv-x="564" 
d="M88 22q-2 -11 -10.5 -19t-19.5 -8t-18 8t-6 19q2 11 10.5 19t19.5 8t18 -8t6 -19zM276 22q-2 -11 -10.5 -19t-19.5 -8t-18 8t-6 19q2 11 10.5 19t19.5 8t18 -8t6 -19zM464 22q-2 -11 -10.5 -19t-19.5 -8t-18 8t-6 19q2 11 10.5 19t19.5 8t18 -8t6 -19z" />
    <glyph glyph-name="perthousand" unicode="&#x2030;" horiz-adv-x="907" 
d="M843 130q-8 -65 -44 -103.5t-83 -38.5q-45 0 -73.5 39t-21.5 103t44 102.5t83 38.5q45 0 74 -38.5t21 -102.5zM315 471q-7 -65 -43.5 -103t-83.5 -38q-45 0 -73.5 38.5t-21.5 102.5q7 65 44 103.5t83 38.5q45 0 73.5 -39t21.5 -103zM549 606l-439 -624l-16 12l439 624z
M552 130q-8 -65 -44 -103.5t-83 -38.5q-45 0 -73.5 39t-20.5 103q8 65 44 103t83 38q45 0 73.5 -38.5t20.5 -102.5zM815 130q6 51 -13 83.5t-56 32.5t-64 -32.5t-33 -83.5t13 -84t56 -33t64 33t33 84zM287 471q6 51 -13.5 84t-55.5 33q-37 0 -64 -33t-33 -84t13 -83.5
t56 -32.5t64 32.5t33 83.5zM524 130q6 51 -13 83.5t-56 32.5t-63.5 -32.5t-32.5 -83.5t13 -84t56 -33t63.5 33t32.5 84z" />
    <glyph glyph-name="guilsinglleft" unicode="&#x2039;" horiz-adv-x="260" 
d="M253 371l-184 -166l125 -165l-16 -13l-143 180l207 180z" />
    <glyph glyph-name="guilsinglright" unicode="&#x203a;" horiz-adv-x="260" 
d="M218 207l-207 -180l-11 16l184 166l-125 165l16 13z" />
    <glyph glyph-name="fraction" unicode="&#x2044;" horiz-adv-x="141" 
d="M313 606l-439 -624l-16 12l439 624z" />
    <glyph glyph-name="Euro" unicode="&#x20ac;" horiz-adv-x="468" 
d="M482 584l-5 -31q-38 32 -104 32q-75 0 -133 -55t-86 -152h180l-4 -24h-181q-5 -17 -11 -53q-3 -17 -5 -53h178l-4 -24h-176q-1 -99 39.5 -153.5t120.5 -54.5q61 0 110 32l-5 -32q-48 -30 -111 -30q-91 0 -140.5 62.5t-47.5 175.5h-61l4 24h58q2 26 6 53q6 36 10 53h-55
l4 24h57q33 113 100 175t155 62q67 0 107 -31z" />
    <glyph glyph-name="trademark" unicode="&#x2122;" horiz-adv-x="729" 
d="M659 267h-28l49 279l-22 -36l-151 -243h-18l-65 243l-10 37l-49 -280h-28l59 333h30l79 -290l181 290h32zM347 600l-4 -28h-111l-54 -305h-31l54 305h-110l4 28h252z" />
    <glyph glyph-name="Omega" unicode="&#x2126;" horiz-adv-x="511" 
d="M495 397q-10 -63 -51.5 -118.5t-100.5 -85.5l-29 -162h101l-5 -31h-129l37 213q57 26 96.5 76t48.5 107q12 77 -28 133t-119 56q-78 0 -135.5 -56t-69.5 -133q-9 -58 12 -108t73 -78l-37 -210h-128l5 31h101l28 162q-50 31 -73 85.5t-13 118.5q14 89 81.5 152.5
t159.5 63.5q88 0 138.5 -64t36.5 -152z" />
    <glyph glyph-name="partialdiff" unicode="&#x2202;" horiz-adv-x="481" 
d="M35 175q11 84 68.5 139t136.5 55q46 0 90 -23t67 -67q29 304 -166 304q-62 0 -119 -32l4 33q50 30 117 30q119 0 166.5 -93t27.5 -257q-10 -79 -34.5 -136t-58 -86.5t-67.5 -42.5t-71 -13q-78 0 -124.5 53t-36.5 136zM68 175q-8 -72 28.5 -116t103.5 -44q66 0 119.5 52
t71.5 176q-18 43 -59.5 70t-91.5 27q-68 0 -116 -46.5t-56 -118.5z" />
    <glyph glyph-name="Delta" unicode="&#x2206;" horiz-adv-x="538" 
d="M462 0h-465l333 606h17zM428 29l-100 522l-285 -522h385z" />
    <glyph glyph-name="product" unicode="&#x220f;" horiz-adv-x="571" 
d="M602 600l-5 -31h-60l-101 -569h-34l101 569h-312l-101 -569h-34l101 569h-60l5 31h500z" />
    <glyph glyph-name="summation" unicode="&#x2211;" horiz-adv-x="478" 
d="M522 600l-5 -30h-389l167 -351l-286 -359h397l-5 -30h-444l2 16l300 377l-171 360l3 17h431z" />
    <glyph glyph-name="minus" unicode="&#x2212;" horiz-adv-x="390" 
d="M343 242l-5 -26h-285l4 26h286z" />
    <glyph glyph-name="radical" unicode="&#x221a;" horiz-adv-x="416" 
d="M527 741l-415 -761h-9l-69 287l29 11l56 -244l384 707h24z" />
    <glyph glyph-name="infinity" unicode="&#x221e;" horiz-adv-x="684" 
d="M526 350q52 0 83 -35.5t26 -86.5t-42 -86t-89 -35q-67 0 -165 105q-126 -105 -187 -105q-53 0 -84 35.5t-25 85.5q6 52 42.5 87t88.5 35q63 0 165 -106q121 106 187 106zM611 228q5 40 -19 70t-64 30q-59 0 -175 -100q97 -99 154 -99q39 0 69 30t35 69zM323 228
q-93 100 -153 100q-40 0 -69 -29.5t-34 -70.5q-5 -39 18.5 -69t63.5 -30q55 0 174 99z" />
    <glyph glyph-name="integral" unicode="&#x222b;" horiz-adv-x="205" 
d="M303 647l-4 -27q-23 5 -29 5q-45 0 -69 -29t-38 -107l-101 -571q-10 -54 -39.5 -85.5t-80.5 -31.5q-31 0 -50 16l6 26q18 -15 44 -15q71 0 87 93l100 566q17 92 50.5 128.5t92.5 36.5q16 0 31 -5z" />
    <glyph glyph-name="approxequal" unicode="&#x2248;" horiz-adv-x="388" 
d="M152 311q-37 0 -65 -31l3 26q23 31 65 31q26 0 60 -16.5t55 -16.5q37 0 65 31l-3 -26q-23 -31 -65 -31q-25 0 -59 16.5t-56 16.5zM123 156q-37 0 -65 -31l3 26q23 31 65 31q26 0 60 -16.5t55 -16.5q37 0 65 31l-3 -26q-23 -31 -65 -31q-25 0 -59 16.5t-56 16.5z" />
    <glyph glyph-name="notequal" unicode="&#x2260;" horiz-adv-x="388" 
d="M344 411l-68 -91h56l-4 -26h-72l-95 -128h144l-5 -26h-159l-77 -103l-16 11l69 92h-57l5 26h71l96 128h-145l5 26h160l76 102z" />
    <glyph glyph-name="lessequal" unicode="&#x2264;" horiz-adv-x="381" 
d="M358 427l-252 -146l199 -145l-15 -22l-230 169l289 167zM309 25l-4 -25h-305l4 25h305z" />
    <glyph glyph-name="greaterequal" unicode="&#x2265;" horiz-adv-x="381" 
d="M345 283l-289 -167l-9 23l251 145l-199 146l15 21zM309 25l-4 -25h-305l4 25h305z" />
    <glyph glyph-name="lozenge" unicode="&#x25ca;" horiz-adv-x="446" 
d="M422 293l-246 -339l-128 339l247 333zM393 294l-106 285l-211 -288l107 -290z" />
    <glyph glyph-name="zero.lprp" horiz-adv-x="519" 
d="M483 300q-19 -145 -88.5 -229.5t-162.5 -84.5t-140.5 84.5t-28.5 229.5q19 144 89 229t162 85q93 0 140.5 -85t28.5 -229zM449 300q19 134 -19 208.5t-117 74.5q-78 0 -137.5 -74.5t-78.5 -208.5q-19 -135 19.5 -209t116.5 -74q79 0 138 74t78 209z" />
    <glyph glyph-name="one.lprp" horiz-adv-x="234" 
d="M98 0h-34l100 566l-64 -8l4 25l101 25z" />
    <glyph glyph-name="two.lprp" horiz-adv-x="421" 
d="M398 445q-4 -37 -17 -70.5t-34.5 -61t-38 -45t-41.5 -39.5l-221 -198h291l-4 -31h-329l-6 25l235 213q34 31 54.5 52.5t46 65.5t30.5 89q8 71 -27.5 105t-93.5 34q-73 0 -147 -55l5 34q25 21 66.5 36.5t80.5 15.5q74 0 116.5 -45.5t33.5 -124.5z" />
    <glyph glyph-name="three.lprp" horiz-adv-x="446" 
d="M452 580l-261 -228q34 9 59 7q70 -6 108 -56.5t30 -121.5q-10 -88 -72 -141.5t-147 -53.5q-41 0 -81 14.5t-63 36.5l5 35q57 -55 142 -55q72 0 123 44.5t59 119.5q7 69 -29 110.5t-100 41.5q-56 0 -91 -28l-14 19l278 245h-285l4 31h329z" />
    <glyph glyph-name="four.lprp" horiz-adv-x="483" 
d="M448 191l-5 -30h-106l-28 -161h-33l28 161h-273l-5 23l369 425h22l-75 -418h106zM372 542l-304 -351h241z" />
    <glyph glyph-name="five.lprp" horiz-adv-x="438" 
d="M439 600l-5 -31h-271l-45 -251q47 51 119 51t116 -50t34 -135q-10 -89 -72.5 -143.5t-147.5 -54.5q-41 0 -81 14.5t-63 36.5l5 35q59 -55 142 -55q69 0 121.5 45.5t61.5 121.5q8 70 -26.5 113t-98.5 43q-81 0 -128 -74l-21 8l58 326h302z" />
    <glyph glyph-name="six.lprp" horiz-adv-x="479" 
d="M468 582l-6 -32q-42 33 -110 33q-100 0 -167.5 -78.5t-88.5 -217.5q29 37 75.5 59.5t93.5 22.5q80 0 127 -56t37 -141q-10 -83 -66.5 -134.5t-133.5 -51.5q-37 0 -69 13.5t-59.5 44t-38.5 87t-2 134.5q20 163 98 256t198 93q72 0 112 -32zM395 172q8 73 -29 120t-105 47
q-48 0 -95 -25.5t-74 -68.5q-6 -64 3.5 -111t31.5 -71.5t47.5 -36t55.5 -11.5q65 0 111 42.5t54 114.5z" />
    <glyph glyph-name="seven.lprp" horiz-adv-x="406" 
d="M437 581q-62 -78 -170 -262t-157 -319h-39q52 135 155.5 310t166.5 259h-310l5 31h345z" />
    <glyph glyph-name="eight.lprp" horiz-adv-x="493" 
d="M450 482q-4 -50 -46 -90t-106 -58q64 -20 101.5 -63t33.5 -107q-4 -78 -65.5 -128t-149.5 -50q-83 0 -132 46t-44 119q4 68 58 115t132 68q-51 15 -80 53t-25 88q4 61 55.5 100.5t122.5 39.5q67 0 108 -36.5t37 -96.5zM417 482q4 48 -27 76t-88 28q-58 0 -98 -32t-44 -82
q-3 -45 24.5 -77.5t83.5 -45.5q64 15 104.5 50.5t44.5 82.5zM263 318q-178 -50 -187 -167q-5 -60 34.5 -97.5t110.5 -37.5q73 0 123 42t55 105q8 114 -136 155z" />
    <glyph glyph-name="nine.lprp" horiz-adv-x="479" 
d="M38 19l6 32q42 -33 110 -33q100 0 167.5 78.5t88.5 217.5q-29 -37 -75.5 -59.5t-93.5 -22.5q-80 0 -127 56t-37 141q10 83 66.5 134.5t133.5 51.5q37 0 69 -13.5t59.5 -44t38.5 -87t2 -134.5q-20 -163 -98 -256t-198 -93q-72 0 -112 32zM111 429q-8 -73 29 -120t105 -47
q48 0 95 25.5t74 68.5q6 64 -3.5 111t-31.5 71.5t-47.5 36t-55.5 11.5q-65 0 -111 -42.5t-54 -114.5z" />
    <glyph glyph-name="zero.otab" 
d="M259 445q88 0 136.5 -66.5t35.5 -166.5q-13 -99 -74.5 -162t-146.5 -63q-88 0 -137 67t-36 167q13 99 75 161.5t147 62.5zM258 414q-70 0 -123 -52.5t-64 -140.5q-12 -93 28 -148t112 -55q69 0 122 53t64 141q12 93 -27.5 147.5t-111.5 54.5z" />
    <glyph glyph-name="one.otab" 
d="M216 0h-34l71 400l-64 -8l4 25l101 25z" />
    <glyph glyph-name="two.otab" 
d="M399 313q-9 -91 -135 -171l-173 -111h285l-5 -31h-331l-5 25l196 129q57 36 93 73t41 84q6 53 -27.5 78.5t-88.5 25.5q-79 0 -158 -55l6 35q28 20 71 35.5t84 15.5q71 0 112 -36t35 -97z" />
    <glyph glyph-name="three.otab" 
d="M433 412l-264 -246q30 8 59 7q70 -6 108 -56.5t30 -121.5q-10 -88 -72 -141.5t-147 -53.5q-41 0 -81 14.5t-63 36.5l5 35q57 -55 142 -55q72 0 123 44.5t59 119.5q8 69 -28.5 110.5t-100.5 41.5q-56 0 -91 -28l-13 19l281 263h-286l4 31h329z" />
    <glyph glyph-name="four.otab" 
d="M413 30l-5 -30h-106l-34 -195h-33l34 195h-269l-5 23l364 421h22l-74 -414h106zM336 377l-299 -347h237z" />
    <glyph glyph-name="five.otab" 
d="M424 432l-5 -31h-271l-48 -269q47 51 119 51t116 -50t34 -135q-10 -89 -72.5 -143.5t-147.5 -54.5q-41 0 -81 14.5t-63 36.5l5 35q59 -55 142 -55q69 0 121.5 45.5t61.5 121.5q8 70 -26.5 113t-98.5 43q-81 0 -128 -74l-21 8l61 344h302z" />
    <glyph glyph-name="six.otab" 
d="M463 582l-6 -32q-42 33 -110 33q-100 0 -167.5 -78.5t-88.5 -217.5q29 37 75.5 59.5t93.5 22.5q80 0 127 -56t37 -141q-10 -83 -67 -134.5t-133 -51.5q-37 0 -69 13.5t-59.5 44t-38.5 87t-2 134.5q20 163 98 256t198 93q72 0 112 -32zM390 172q8 73 -29 120t-105 47
q-48 0 -95 -25.5t-74 -68.5q-6 -64 3.5 -111t31.5 -71.5t47.5 -36t55.5 -11.5q65 0 111 42.5t54 114.5z" />
    <glyph glyph-name="seven.otab" 
d="M438 413q-59 -73 -171 -272t-162 -336h-39q53 137 161 327.5t167 268.5h-310l5 31h345z" />
    <glyph glyph-name="eight.otab" 
d="M288 615q66 0 106 -36t36 -95q-4 -49 -44.5 -91t-102.5 -59q66 -21 104.5 -65t33.5 -106q-5 -77 -64.5 -127t-148.5 -50q-83 0 -130.5 46.5t-42.5 117.5q4 67 55.5 114.5t129.5 69.5q-51 17 -80.5 54.5t-25.5 82.5q4 63 53 103.5t121 40.5zM397 483q4 47 -26.5 75
t-85.5 28q-58 0 -96 -31.5t-43 -81.5q-3 -44 24.5 -76.5t84.5 -47.5q64 16 101.5 52t40.5 82zM250 318q-173 -52 -181 -168q-5 -58 33 -96t109 -38q74 0 122.5 42t53.5 104q8 111 -137 156z" />
    <glyph glyph-name="nine.otab" 
d="M1 -168l6 32q42 -33 110 -33q99 0 167.5 86.5t89.5 228.5q-29 -37 -75.5 -59.5t-93.5 -22.5q-80 0 -127 56t-37 141q10 83 66.5 134.5t133.5 51.5q37 0 69 -13.5t59.5 -44t38.5 -87t2 -134.5q-20 -165 -99 -266.5t-198 -101.5q-72 0 -112 32zM75 261q-8 -73 29 -120
t105 -47q48 0 95 25.5t74 68.5q6 64 -3.5 111t-31.5 71.5t-47.5 36t-55.5 11.5q-65 0 -111 -42.5t-54 -114.5z" />
    <glyph glyph-name="zero.ltab" 
d="M444 301q-19 -144 -82.5 -229t-151.5 -85q-89 0 -132 84.5t-24 229.5q19 143 83.5 228.5t150.5 85.5q89 0 132 -85.5t24 -228.5zM410 301q17 134 -18 208.5t-106 74.5q-70 0 -125.5 -75t-72.5 -208q-17 -135 18.5 -209t106.5 -74q70 0 125 74.5t72 208.5z" />
    <glyph glyph-name="one.ltab" 
d="M215 0h-34l100 566l-64 -8l4 25l101 25z" />
    <glyph glyph-name="two.ltab" 
d="M423 445q-6 -49 -29.5 -93.5t-45.5 -68.5t-56 -54l-221 -198h291l-4 -31h-329l-6 25l235 213q34 31 54.5 52.5t46 65.5t30.5 89q8 71 -27.5 105t-93.5 34q-73 0 -147 -55l5 34q25 21 66.5 36.5t80.5 15.5q74 0 116.5 -45.5t33.5 -124.5z" />
    <glyph glyph-name="three.ltab" 
d="M463 580l-261 -228q30 8 59 7q70 -6 108 -56.5t30 -121.5q-10 -88 -72 -141.5t-147 -53.5q-41 0 -81 14.5t-63 36.5l5 35q57 -55 142 -55q72 0 123 44.5t59 119.5q8 69 -28.5 110.5t-100.5 41.5q-56 0 -91 -28l-14 19l278 245h-285l4 31h329z" />
    <glyph glyph-name="four.ltab" 
d="M441 191l-5 -30h-106l-28 -161h-33l28 161h-270l-5 23l366 425h22l-75 -418h106zM365 542l-301 -351h238z" />
    <glyph glyph-name="five.ltab" 
d="M454 600l-5 -31h-271l-45 -251q47 51 119 51t116 -50t34 -135q-10 -89 -72.5 -143.5t-147.5 -54.5q-41 0 -81 14.5t-63 36.5l5 35q59 -55 142 -55q69 0 121.5 45.5t61.5 121.5q8 70 -26.5 113t-98.5 43q-81 0 -128 -74l-21 8l58 326h302z" />
    <glyph glyph-name="six.ltab" 
d="M463 582l-6 -32q-42 33 -110 33q-100 0 -167.5 -78.5t-88.5 -217.5q29 37 75.5 59.5t93.5 22.5q80 0 127 -56t37 -141q-10 -83 -67 -134.5t-133 -51.5q-37 0 -69 13.5t-59.5 44t-38.5 87t-2 134.5q20 163 98 256t198 93q72 0 112 -32zM390 172q8 73 -29 120t-105 47
q-48 0 -95 -25.5t-74 -68.5q-6 -64 3.5 -111t31.5 -71.5t47.5 -36t55.5 -11.5q65 0 111 42.5t54 114.5z" />
    <glyph glyph-name="seven.ltab" 
d="M468 581q-62 -78 -170 -262t-157 -319h-39q52 135 155.5 310t166.5 259h-310l5 31h345z" />
    <glyph glyph-name="eight.ltab" 
d="M288 615q66 0 106 -36t36 -95q-4 -49 -44.5 -91t-102.5 -59q66 -21 104.5 -65t33.5 -106q-5 -77 -64.5 -127t-148.5 -50q-83 0 -130.5 46.5t-42.5 117.5q4 67 55.5 114.5t129.5 69.5q-51 17 -80.5 54.5t-25.5 82.5q4 63 53 103.5t121 40.5zM397 483q4 47 -26.5 75
t-85.5 28q-58 0 -96 -31.5t-43 -81.5q-3 -44 24.5 -76.5t84.5 -47.5q64 16 101.5 52t40.5 82zM250 318q-173 -52 -181 -168q-5 -58 33 -96t109 -38q74 0 122.5 42t53.5 104q8 111 -137 156z" />
    <glyph glyph-name="nine.ltab" 
d="M33 19l6 32q42 -33 110 -33q100 0 167.5 78.5t88.5 217.5q-29 -37 -75.5 -59.5t-93.5 -22.5q-80 0 -127 56t-37 141q10 83 66.5 134.5t133.5 51.5q37 0 69 -13.5t59.5 -44t38.5 -87t2 -134.5q-20 -163 -98 -256t-198 -93q-72 0 -112 32zM106 429q-8 -73 29 -120t105 -47
q48 0 95 25.5t74 68.5q6 64 -3.5 111t-31.5 71.5t-47.5 36t-55.5 11.5q-65 0 -111 -42.5t-54 -114.5z" />
    <glyph glyph-name="questiondown.caps" horiz-adv-x="386" 
d="M297 546q-11 0 -18 8t-6 19q2 11 10.5 19t19.5 8t18 -8t6 -19q-2 -11 -10.5 -19t-19.5 -8zM18 131q7 61 50 105t115 79l62 30l19 89h23l-16 -107l-66 -33q-71 -35 -109 -72.5t-44 -89.5q-6 -58 31.5 -87t97.5 -29q40 0 86 18t77 45l-4 -35q-30 -25 -76 -42t-88 -17
q-72 0 -119 37.5t-39 108.5z" />
    <glyph glyph-name="exclamdown.caps" horiz-adv-x="196" 
d="M157 547q-11 0 -18 8t-6 19q2 11 10.5 19t19.5 8t18 -8t6 -19q-2 -11 -10.5 -19t-19.5 -8zM39 0l85 435h24l-69 -435h-40z" />
    <glyph glyph-name="at.caps" horiz-adv-x="672" 
d="M668 352q-9 -94 -74.5 -169t-130.5 -75q-54 0 -61 55q-17 -25 -45.5 -42t-56.5 -17q-61 0 -84.5 53t-2.5 130q20 75 78 128t120 53q33 0 62 -16l28 -1l-68 -255q-8 -29 3 -48t37 -19q54 0 109 68t63 154q10 106 -56.5 174.5t-172.5 68.5q-132 0 -234 -97.5t-114 -230.5
q-11 -123 66.5 -205t199.5 -82q116 0 222 68l8 -15q-110 -73 -234 -73q-133 0 -217.5 88.5t-73.5 217.5q13 144 123.5 247.5t253.5 103.5q117 0 189.5 -74t62.5 -190zM468 427q-29 19 -59 19q-53 0 -102 -47t-66 -114q-19 -65 -1 -111t68 -46q32 0 63.5 26t39.5 56z" />
    <glyph glyph-name="Q.alt" horiz-adv-x="667" 
d="M605 300q15 126 -51.5 204t-174.5 78q-109 0 -192 -77.5t-98 -204.5q-15 -126 51 -204t175 -78q108 0 191.5 78t98.5 204zM352 -12l25 -60q22 -53 51 -75t71 -22q58 0 107 53l16 -21q-53 -62 -130 -62q-100 0 -147 113l-30 72q-126 0 -200.5 88t-59.5 226t108 226t217 88
t199 -88.5t60 -225.5q-14 -127 -94.5 -212t-192.5 -100z" />
    <glyph glyph-name="R.alt" horiz-adv-x="477" 
d="M441 425q-9 -66 -51 -112t-112 -53l133 -260h-38l-132 258h-130l-46 -258h-34l106 600h157q83 0 120 -51t27 -124zM407 425q9 59 -19.5 101.5t-97.5 42.5h-124l-50 -280h139q70 0 106.5 38.5t45.5 97.5z" />
    <glyph glyph-name="f.alt" horiz-adv-x="204" 
d="M266 609l-4 -28q-10 4 -20 4q-35 0 -56 -20.5t-31 -82.5l-25 -141h90l-5 -27h-90l-55 -314h-33l55 314h-65l5 27h65l25 141q13 72 42.5 102t75.5 30q14 0 26 -5z" />
    <glyph glyph-name="p.alt" horiz-adv-x="411" 
d="M0 -195l86 486q4 20 0 27.5t-17 7.5t-21 -5v18q16 11 35 11q50 0 34 -69q19 33 55.5 52t74.5 19q74 0 108.5 -54t18.5 -133q-15 -75 -70 -124.5t-129 -49.5q-54 0 -103 35l-39 -221h-33zM76 53q45 -33 101 -33q62 0 106.5 41.5t58.5 106.5q14 67 -13.5 111t-90.5 44
q-45 0 -85 -31.5t-49 -81.5z" />
    <glyph glyph-name="q.alt" horiz-adv-x="400" 
d="M330 290q-45 33 -101 33q-62 0 -107 -41.5t-58 -106.5q-14 -67 13.5 -111t90.5 -44q45 0 85 31.5t49 81.5zM276 -195h-33l46 257q-19 -33 -55.5 -52t-74.5 -19q-74 0 -108.5 54t-18.5 133q14 75 69.5 124.5t129.5 49.5q58 0 106 -37l12 29h23z" />
    <glyph glyph-name="r.alt" horiz-adv-x="248" 
d="M255 351l-7 -36q-43 4 -90 -31t-60 -106l-31 -178h-33l51 291q4 20 0 27.5t-17 7.5t-21 -5v18q18 11 35 11q21 0 31.5 -15t4.5 -44l-7 -32q25 44 64.5 67.5t79.5 24.5z" />
    <glyph glyph-name="y.alt" horiz-adv-x="338" 
d="M339 341l-316 -536h-35l121 204l-79 332h33l68 -296l173 296h35z" />
    <glyph glyph-name="yacute.alt" horiz-adv-x="338" 
d="M339 341l-316 -536h-35l121 204l-79 332h33l68 -296l173 296h35zM266 511q20 14 28 2q9 -13 -11 -27q-4 -3 -14.5 -9.5t-36 -22.5t-60.5 -39l-9 13q33 26 56.5 45t33 27t13.5 11z" />
    <glyph glyph-name="ydieresis.alt" horiz-adv-x="338" 
d="M339 341l-316 -536h-35l121 204l-79 332h33l68 -296l173 296h35zM253 440q1 10 8 16.5t17 6.5t16.5 -6.5t5.5 -16.5t-8.5 -16.5t-17.5 -6.5t-16 6.5t-5 16.5zM103 440q1 10 8 16.5t17 6.5t16.5 -6.5t5.5 -16.5t-8.5 -16.5t-17.5 -6.5t-16 6.5t-5 16.5z" />
    <glyph glyph-name="v.alt" horiz-adv-x="338" 
d="M339 341l-201 -343h-26l-81 343h33l68 -296l172 296h35z" />
    <glyph glyph-name="w.alt" horiz-adv-x="546" 
d="M544 341l-187 -343h-25l-53 290l-155 -290h-25l-66 343h33l53 -291l157 291h24l53 -291l157 291h34z" />
    <glyph glyph-name="x.alt" horiz-adv-x="377" 
d="M201 174l46 -113q18 -43 50 -43q22 0 40 13l5 -19q-23 -19 -54 -19q-49 0 -76 71l-32 81l-49 -77q-46 -75 -95 -75q-20 0 -32.5 13t-8.5 32h19q-1 -10 5 -15t16 -5q28 0 60 48l71 109l-42 104q-19 46 -51 46q-26 0 -40 -13l-5 19q22 19 54 19q49 0 77 -74l28 -72l43 67
q50 79 98 79q20 0 32.5 -12.5t8.5 -32.5h-19q1 9 -5 14.5t-16 5.5q-28 0 -63 -52z" />
    <glyph glyph-name="z.alt" horiz-adv-x="339" 
d="M313 319q-16 -15 -92 -83t-117.5 -112.5t-51.5 -74.5q10 3 20 2q7 -1 57 -19t87 -18q31 0 47 13t22 44h20q-3 -86 -89 -86q-42 0 -97.5 20.5t-63.5 20.5q-20 0 -20 -26h-19q-5 27 7 56.5t42 63.5t56.5 60t74 68t71.5 66h-203l4 27h240z" />
    <glyph glyph-name="zcaron.alt" horiz-adv-x="339" 
d="M313 319q-16 -15 -92 -83t-117.5 -112.5t-51.5 -74.5q10 3 20 2q7 -1 57 -19t87 -18q31 0 47 13t22 44h20q-3 -86 -89 -86q-42 0 -97.5 20.5t-63.5 20.5q-20 0 -20 -26h-19q-5 27 7 56.5t42 63.5t56.5 60t74 68t71.5 66h-203l4 27h240zM316 530l-120 -114l-81 115l15 14
l70 -94l102 94z" />
    <glyph glyph-name="fi.alt" horiz-adv-x="363" 
d="M315 300q0 -15 -24 -131.5t-24 -133.5q0 -18 19 -18q14 0 21 5v-18q-17 -11 -35 -11q-17 0 -27.5 10.5t-10.5 30.5q0 15 24 129.5t24 131.5q0 19 -20 19h-137l-55 -314h-33l55 314h-65l5 27h65l25 141q13 72 42.5 102t75.5 30q14 0 26 -5l-4 -28q-10 4 -20 4
q-35 0 -56 -20.5t-31 -82.5l-25 -141h147q38 0 38 -41zM304 478q1 10 9.5 18t19.5 8q10 0 17 -7.5t6 -18.5q-1 -10 -9.5 -18t-19.5 -8q-10 0 -17 7.5t-6 18.5z" />
    <glyph glyph-name="fl.alt" horiz-adv-x="359" 
d="M365 608l-98 -556q-4 -20 0 -27.5t17 -7.5t21 5v-18q-17 -11 -35 -11q-47 0 -36 59l92 520q-30 10 -60 10q-47 0 -75 -26t-39 -90l-22 -125h90l-5 -27h-90l-55 -314h-33l55 314h-65l5 27h65l22 122q26 147 149 147q31 0 63 -10z" />
    <glyph glyph-name="registered.alt" horiz-adv-x="483" 
d="M499 384q-11 -96 -84 -163t-168 -67t-155 67.5t-50 162.5t84.5 162.5t169.5 67.5t154.5 -67.5t48.5 -162.5zM483 384q9 89 -45.5 151.5t-142.5 62.5t-157 -62.5t-79 -151.5t45.5 -151.5t143.5 -62.5t157 62.5t78 151.5zM369 442q-4 -31 -25.5 -53t-55.5 -26l58 -115h-28
l-56 114h-49l-20 -114h-26l50 279h80q40 0 58.5 -25t13.5 -60zM343 443q4 27 -8 44.5t-40 17.5h-56l-22 -121h58q29 0 46.5 17t21.5 42z" />
    </font>
</defs>
</svg>
