<?xml version="1.0" encoding="utf-8"?>
<!-- Generator: Adobe Illustrator 17.0.0, SVG Export Plug-In . SVG Version: 6.00 Build 0)  -->
<!DOCTYPE svg PUBLIC "-//W3C//DTD SVG 1.1//EN" "http://www.w3.org/Graphics/SVG/1.1/DTD/svg11.dtd">
<svg version="1.1" id="Layer_1" xmlns="http://www.w3.org/2000/svg" xmlns:xlink="http://www.w3.org/1999/xlink" x="0px" y="0px"
	 width="217.8px" height="170px" viewBox="0 0 217.8 170" style="enable-background:new 0 0 217.8 170;" xml:space="preserve">
<style type="text/css">
	.st0{fill:#002E6D;}
</style>
<path class="st0" d="M19.9,150.3c-0.8-0.9-1.6-1.6-2.9-1.6c-1.8,0-2.8,1.5-2.8,3.1c0,2.3,1.7,3.3,3.3,4.5c1.7,1.2,3.3,2.4,3.3,5.1
	c0,2.8-1.8,5.5-4.9,5.5c-1.1,0-2.2-0.3-3.1-1v-2.3c0.8,0.9,1.9,1.6,3.2,1.6c1.9,0,3-1.7,2.9-3.4c0-2.3-1.7-3.3-3.3-4.4
	c-1.7-1.1-3.3-2.4-3.3-5.2c0-2.6,1.6-5.2,4.5-5.2c1.2,0,2.1,0.4,3.1,1V150.3z"/>
<path class="st0" d="M59.2,166.7h-1.7l-2-13.1c-0.1-0.7-0.2-2.1-0.2-3.2h-0.1c-0.1,1.1-0.2,2.5-0.3,3.2l-2.3,13.1h-1.7L48,147.2h1.9
	l1.7,13c0.1,1,0.2,1.9,0.3,2.9H52c0.1-1,0.2-1.9,0.4-2.9l2.2-13h1.5l1.9,13c0.1,1,0.3,1.9,0.4,2.9h0.1c0.1-1,0.2-1.9,0.3-2.9l2-13
	h1.8L59.2,166.7z"/>
<polygon class="st0" points="96.6,148.9 92.3,148.9 92.3,155.7 96.5,155.7 96.5,157.4 92.3,157.4 92.3,165 96.6,165 96.6,166.7 
	90.5,166.7 90.5,147.2 96.6,147.2 "/>
<path class="st0" d="M126.8,165h0.5c3.5,0,3.9-2.5,3.9-8.1c0-6.7-0.7-8.1-4.1-8.1h-0.3V165z M125,147.2h2c3.7,0,6.1,0.5,6.1,9.7
	c0,7.6-1.2,9.7-6,9.7H125V147.2z"/>
<polygon class="st0" points="167.6,148.9 163.3,148.9 163.3,155.7 167.4,155.7 167.4,157.4 163.3,157.4 163.3,165 167.6,165 
	167.6,166.7 161.5,166.7 161.5,147.2 167.6,147.2 "/>
<path class="st0" d="M204.1,166.7h-1.6l-4.4-13.1c-0.3-0.8-0.4-1.7-0.7-2.5h-0.1c0.1,1.3,0.2,2.5,0.2,3.8v11.8H196v-19.5h1.6
	l4.5,13.5c0.2,0.7,0.4,1.3,0.6,2h0.1c-0.1-0.9-0.2-1.7-0.2-2.6v-13h1.6V166.7z"/>
<polygon class="st0" points="46.1,48.5 46.1,24.2 15.5,24.2 15.5,48.5 12.7,48.5 12.7,0 15.5,0 15.5,21.7 46.1,21.7 46.1,0 48.8,0 
	48.8,48.5 "/>
<polygon class="st0" points="60.4,48.5 60.4,0 86.2,0 86.2,2.5 63.2,2.5 63.2,21.7 82.2,21.7 82.2,24.2 63.2,24.2 63.2,46 86.2,46 
	86.2,48.5 "/>
<path class="st0" d="M112.9,4L102,31.5h21.8L112.9,4z M130.6,48.5L124.7,34H101l-5.8,14.5h-2.8L111.7,0h2.3l19.4,48.5H130.6z"/>
<path class="st0" d="M144,25.2h11.4c8.6,0,11.4-5.7,11.4-11.3c0-5.6-2.8-11.4-11.4-11.4H144V25.2z M172.8,49c-5.1,0-8.9-2.6-12.2-9
	l-6.3-12.3H144v20.8h-2.7V0h14.1c9.9,0,14.1,6.6,14.1,13.9c0,6.9-3.8,13-12.4,13.7l6.1,11.6c3.1,5.8,6.1,7.4,10.4,7.4
	c0.8,0,1.4,0,2.1-0.2v2.2C174.8,48.9,173.9,49,172.8,49"/>
<polygon class="st0" points="193.7,2.5 193.7,48.5 191,48.5 191,2.5 173.7,2.5 173.7,0 211,0 211,2.5 "/>
<path class="st0" d="M18.6,63c-5.8,0-9.7,4.1-9.7,8.9c0,4.1,1.7,7.8,4,11.6c6.5-4.1,13.9-7.4,13.9-13.5C26.8,65.8,23.3,63,18.6,63
	 M11.9,86.6c-4.5,3-8.2,6.4-8.2,11.6c0,7.2,6.1,11.2,13.1,11.2c4,0,7.3-1.9,9.7-4.9C22.7,100.6,16.8,93.7,11.9,86.6 M39.3,111.6
	c-4.1,0-7.3-1.7-11.2-5.4c-2.7,3.3-6.5,5.4-11.6,5.4c-7.9,0-15.4-4-15.4-13.5c0-6,4.4-10,9.6-13.5C8.1,80.5,6.3,76.3,6.3,72
	c0-6.4,5.2-11.1,12.3-11.1c6.4,0,10.7,3.9,10.7,9c0,7.8-9,11.6-15.3,15.3c5,6.9,10.4,13.4,14,17.2c1.3-2.2,2.1-4.4,2.5-7.4
	c0.4-3.1,0.6-6.4,0.6-8.5h9.7v2.3h-7.4c-0.3,7.4-1.3,11.3-3.7,15.2c4,4,6.8,5.3,10.1,5.3c1.7,0,3.8-0.7,5.3-2.5l1.1,1.4
	C44.4,110.7,41.6,111.6,39.3,111.6"/>
<path class="st0" d="M69,108h12c8.8,0,11.6-5.3,11.6-10.8c0-5.6-2.7-10.8-11.6-10.8H69V108z M79.7,64.5H69v19.3h10.7
	c8,0,10.4-4.7,10.4-9.8C90.1,69.1,87.7,64.5,79.7,64.5 M81,110.5H66.3V62h13.4c9.3,0,13.2,5.4,13.2,12c0,4.4-2,9.5-7.5,10.7
	c7.3,1.1,10,6.9,10,12.4C95.3,104.4,91.1,110.5,81,110.5"/>
<path class="st0" d="M120.7,66l-10.9,27.5h21.8L120.7,66z M138.4,110.5L132.6,96h-23.7l-5.8,14.5h-2.8L119.6,62h2.3l19.4,48.5H138.4
	z"/>
<polygon class="st0" points="179.2,110.5 157.5,85.9 151.9,91.9 151.9,110.5 149.1,110.5 149.1,62 151.9,62 151.9,88.4 176.4,62 
	179.7,62 159.3,83.9 182.7,110.5 "/>
<polygon class="st0" points="189.1,110.5 189.1,62 214.9,62 214.9,64.5 191.9,64.5 191.9,83.8 210.8,83.8 210.8,86.3 191.9,86.3 
	191.9,108 214.9,108 214.9,110.5 "/>
</svg>
