<?xml version="1.0" encoding="UTF-8" standalone="no"?>
<svg width="180px" height="54px" viewBox="0 0 180 54" version="1.1" xmlns="http://www.w3.org/2000/svg" xmlns:xlink="http://www.w3.org/1999/xlink" xmlns:sketch="http://www.bohemiancoding.com/sketch/ns">
    <!-- Generator: Sketch 3.3.2 (12043) - http://www.bohemiancoding.com/sketch -->
    <title>Path 2</title>
    <desc>Created with Sketch.</desc>
    <defs></defs>
    <g id="Page-1" stroke="none" stroke-width="1" fill="none" fill-rule="evenodd" sketch:type="MSPage">
        <g id="Logo" sketch:type="MSArtboardGroup" transform="translate(-173.000000, -141.000000)" fill="#00AEEF">
            <path d="M335.507042,152.5 L335.507042,162.75 L335.507042,162.75 L353,162.75 L353,173 L335.507042,173 L335.507042,183.5 L353,183.5 L353,193.75 L330.309859,193.75 L325.112676,193.75 L325.112676,173.20104 C322.840889,184.680522 313.198208,193.374717 301.535211,193.738165 L301.535211,193.738165 L301.535211,193.75 L286.704225,193.75 L277.957746,193.75 L276.363099,189.5 L260.581408,189.5 L258.943662,193.75 L248.042254,193.75 L246.490704,189.5 L230.919437,189.5 L230.919437,189.5 L229.28169,193.75 L218.126761,193.5 L238.915493,141 L253.492958,178.5 L268.577465,141 L286.577465,186.854167 L286.577465,186.854167 L286.577465,142.25 L301.535211,142.25 L301.535211,142.261835 C313.198208,142.625283 322.840889,151.319478 325.112676,162.79896 L325.112676,162.79896 L325.112676,147.375 L325.112676,142.25 L353,142.25 L353,152.5 L335.507042,152.5 L335.507042,152.5 Z M300.398058,152.5 L296.971831,152.5 L296.971831,183.5 L300.398058,183.5 C308.681851,183.427553 315.375497,176.515757 315.375497,168 C315.375497,159.484243 308.681851,152.572447 300.398058,152.500566 L300.398058,152.5 Z M233.809577,182 L238.915493,168.75 L243.752676,182 L233.809577,182 L233.809577,182 Z M263.471549,182 L268.577465,168.75 L273.549014,182 L263.471549,182 L263.471549,182 Z M173,142.25 L183.901408,142.25 L193.535211,167 L203.422535,142.25 L212.802817,167 L222.43662,142.25 L233.338028,142.25 L212.802817,195 L203.422535,170.5 L193.535211,195 L173,142.25 Z" id="Path-2" sketch:type="MSShapeGroup"></path>
        </g>
    </g>
</svg>